<svg width="544" height="543" viewBox="0 0 544 543" fill="none" xmlns="http://www.w3.org/2000/svg">
<g id="cycle">
<g id="core">
<circle id="Ellipse 27" cx="273" cy="277.997" r="99.5" stroke="#21CD9C"/>
<g id="Training Cycle">
<mask id="path-2-outside-1_294_787" maskUnits="userSpaceOnUse" x="210" y="243" width="128" height="72" fill="black">
<rect fill="white" x="210" y="243" width="128" height="72"/>
<path d="M211 249.387V245.33H230.113V249.387H222.988V268.603H218.125V249.387H211Z"/>
<path d="M231.358 268.603V251.148H236.051V254.194H236.233C236.551 253.11 237.085 252.292 237.835 251.739C238.585 251.179 239.449 250.898 240.426 250.898C240.668 250.898 240.93 250.913 241.21 250.944C241.49 250.974 241.736 251.016 241.949 251.069V255.364C241.721 255.296 241.407 255.235 241.005 255.182C240.604 255.129 240.236 255.103 239.903 255.103C239.191 255.103 238.555 255.258 237.994 255.569C237.441 255.872 237.002 256.296 236.676 256.841C236.358 257.387 236.199 258.016 236.199 258.728V268.603H231.358Z"/>
<path d="M248.929 268.932C247.815 268.932 246.823 268.739 245.951 268.353C245.08 267.959 244.391 267.379 243.883 266.614C243.383 265.841 243.133 264.879 243.133 263.728C243.133 262.758 243.311 261.944 243.667 261.285C244.023 260.625 244.508 260.095 245.122 259.694C245.735 259.292 246.432 258.989 247.213 258.785C248.001 258.58 248.826 258.436 249.69 258.353C250.705 258.247 251.523 258.148 252.145 258.057C252.766 257.959 253.217 257.815 253.497 257.625C253.777 257.436 253.917 257.156 253.917 256.785V256.716C253.917 255.997 253.69 255.44 253.235 255.046C252.789 254.652 252.152 254.455 251.326 254.455C250.455 254.455 249.762 254.648 249.247 255.035C248.732 255.413 248.391 255.891 248.224 256.466L243.747 256.103C243.974 255.042 244.421 254.125 245.088 253.353C245.754 252.572 246.614 251.974 247.667 251.557C248.728 251.133 249.955 250.921 251.349 250.921C252.319 250.921 253.247 251.035 254.133 251.262C255.027 251.489 255.819 251.841 256.508 252.319C257.205 252.796 257.754 253.41 258.156 254.16C258.557 254.902 258.758 255.792 258.758 256.83V268.603H254.167V266.182H254.031C253.751 266.728 253.376 267.209 252.906 267.625C252.436 268.035 251.872 268.357 251.213 268.591C250.554 268.819 249.792 268.932 248.929 268.932ZM250.315 265.591C251.027 265.591 251.656 265.451 252.201 265.171C252.747 264.883 253.175 264.497 253.485 264.012C253.796 263.527 253.951 262.978 253.951 262.364V260.512C253.8 260.61 253.592 260.701 253.326 260.785C253.069 260.86 252.777 260.932 252.451 261C252.126 261.061 251.8 261.118 251.474 261.171C251.148 261.216 250.853 261.258 250.588 261.296C250.02 261.379 249.523 261.512 249.099 261.694C248.675 261.875 248.345 262.122 248.11 262.432C247.876 262.735 247.758 263.114 247.758 263.569C247.758 264.228 247.997 264.732 248.474 265.08C248.959 265.421 249.573 265.591 250.315 265.591Z"/>
<path d="M262.514 268.603V251.148H267.355V268.603H262.514ZM264.946 248.898C264.226 248.898 263.609 248.66 263.093 248.182C262.586 247.697 262.332 247.118 262.332 246.444C262.332 245.777 262.586 245.205 263.093 244.728C263.609 244.243 264.226 244 264.946 244C265.665 244 266.279 244.243 266.787 244.728C267.302 245.205 267.559 245.777 267.559 246.444C267.559 247.118 267.302 247.697 266.787 248.182C266.279 248.66 265.665 248.898 264.946 248.898Z"/>
<path d="M276.074 258.512V268.603H271.233V251.148H275.846V254.228H276.051C276.437 253.213 277.085 252.41 277.994 251.819C278.903 251.22 280.005 250.921 281.301 250.921C282.513 250.921 283.57 251.186 284.471 251.716C285.373 252.247 286.074 253.004 286.574 253.989C287.074 254.966 287.324 256.133 287.324 257.489V268.603H282.483V258.353C282.49 257.285 282.218 256.451 281.664 255.853C281.111 255.247 280.35 254.944 279.38 254.944C278.729 254.944 278.153 255.084 277.653 255.364C277.161 255.644 276.774 256.054 276.494 256.591C276.221 257.122 276.081 257.762 276.074 258.512Z"/>
<path d="M291.139 268.603V251.148H295.98V268.603H291.139ZM293.571 248.898C292.851 248.898 292.234 248.66 291.718 248.182C291.211 247.697 290.957 247.118 290.957 246.444C290.957 245.777 291.211 245.205 291.718 244.728C292.234 244.243 292.851 244 293.571 244C294.29 244 294.904 244.243 295.412 244.728C295.927 245.205 296.184 245.777 296.184 246.444C296.184 247.118 295.927 247.697 295.412 248.182C294.904 248.66 294.29 248.898 293.571 248.898Z"/>
<path d="M304.699 258.512V268.603H299.858V251.148H304.471V254.228H304.676C305.062 253.213 305.71 252.41 306.619 251.819C307.528 251.22 308.63 250.921 309.926 250.921C311.138 250.921 312.195 251.186 313.096 251.716C313.998 252.247 314.699 253.004 315.199 253.989C315.699 254.966 315.949 256.133 315.949 257.489V268.603H311.108V258.353C311.115 257.285 310.843 256.451 310.289 255.853C309.736 255.247 308.975 254.944 308.005 254.944C307.354 254.944 306.778 255.084 306.278 255.364C305.786 255.644 305.399 256.054 305.119 256.591C304.846 257.122 304.706 257.762 304.699 258.512Z"/>
<path d="M327.628 275.512C326.059 275.512 324.715 275.296 323.593 274.864C322.48 274.44 321.593 273.86 320.934 273.125C320.275 272.391 319.847 271.565 319.65 270.648L324.128 270.046C324.264 270.394 324.48 270.72 324.775 271.023C325.071 271.326 325.461 271.569 325.946 271.75C326.438 271.94 327.037 272.035 327.741 272.035C328.794 272.035 329.662 271.777 330.343 271.262C331.033 270.754 331.378 269.902 331.378 268.705V265.512H331.173C330.961 265.997 330.643 266.455 330.218 266.887C329.794 267.319 329.249 267.671 328.582 267.944C327.915 268.216 327.12 268.353 326.196 268.353C324.885 268.353 323.692 268.05 322.616 267.444C321.548 266.83 320.696 265.894 320.059 264.637C319.431 263.372 319.116 261.773 319.116 259.841C319.116 257.864 319.438 256.213 320.082 254.887C320.726 253.561 321.582 252.569 322.65 251.91C323.726 251.25 324.904 250.921 326.184 250.921C327.162 250.921 327.98 251.088 328.639 251.421C329.298 251.747 329.828 252.156 330.23 252.648C330.639 253.133 330.953 253.61 331.173 254.08H331.355V251.148H336.162V268.773C336.162 270.258 335.798 271.5 335.071 272.5C334.343 273.5 333.336 274.25 332.048 274.75C330.768 275.258 329.294 275.512 327.628 275.512ZM327.73 264.716C328.51 264.716 329.169 264.523 329.707 264.137C330.253 263.743 330.669 263.182 330.957 262.455C331.253 261.72 331.4 260.841 331.4 259.819C331.4 258.796 331.256 257.91 330.968 257.16C330.681 256.402 330.264 255.815 329.718 255.398C329.173 254.982 328.51 254.773 327.73 254.773C326.934 254.773 326.264 254.989 325.718 255.421C325.173 255.845 324.76 256.436 324.48 257.194C324.2 257.951 324.059 258.826 324.059 259.819C324.059 260.826 324.2 261.697 324.48 262.432C324.768 263.16 325.181 263.724 325.718 264.125C326.264 264.519 326.934 264.716 327.73 264.716Z"/>
<path d="M255.686 291.478H250.709C250.618 290.834 250.432 290.262 250.152 289.762C249.871 289.254 249.512 288.822 249.072 288.466C248.633 288.11 248.125 287.838 247.549 287.648C246.981 287.459 246.364 287.364 245.697 287.364C244.493 287.364 243.443 287.663 242.549 288.262C241.655 288.853 240.962 289.716 240.47 290.853C239.977 291.982 239.731 293.353 239.731 294.966C239.731 296.625 239.977 298.019 240.47 299.148C240.97 300.277 241.667 301.129 242.561 301.705C243.455 302.281 244.489 302.569 245.663 302.569C246.322 302.569 246.932 302.482 247.493 302.307C248.061 302.133 248.565 301.879 249.004 301.546C249.443 301.205 249.807 300.792 250.095 300.307C250.39 299.822 250.595 299.269 250.709 298.648L255.686 298.671C255.557 299.739 255.235 300.769 254.72 301.762C254.212 302.747 253.527 303.629 252.663 304.41C251.807 305.182 250.784 305.796 249.595 306.25C248.413 306.697 247.076 306.921 245.584 306.921C243.508 306.921 241.652 306.451 240.015 305.512C238.387 304.572 237.099 303.213 236.152 301.432C235.212 299.652 234.743 297.497 234.743 294.966C234.743 292.429 235.22 290.269 236.174 288.489C237.129 286.709 238.424 285.353 240.061 284.421C241.697 283.482 243.538 283.012 245.584 283.012C246.932 283.012 248.182 283.201 249.334 283.58C250.493 283.959 251.519 284.512 252.413 285.239C253.307 285.959 254.034 286.841 254.595 287.887C255.163 288.932 255.527 290.129 255.686 291.478Z"/>
<path d="M262.331 313.148C261.717 313.148 261.141 313.099 260.603 313C260.073 312.91 259.634 312.792 259.285 312.648L260.376 309.035C260.944 309.209 261.456 309.304 261.91 309.319C262.372 309.334 262.77 309.228 263.103 309C263.444 308.773 263.721 308.387 263.933 307.841L264.217 307.103L257.956 289.148H263.047L266.66 301.966H266.842L270.49 289.148H275.615L268.831 308.489C268.505 309.429 268.062 310.247 267.501 310.944C266.948 311.648 266.247 312.19 265.399 312.569C264.55 312.955 263.528 313.148 262.331 313.148Z"/>
<path d="M285.416 306.944C283.628 306.944 282.09 306.565 280.802 305.807C279.522 305.042 278.537 303.982 277.848 302.625C277.166 301.269 276.825 299.709 276.825 297.944C276.825 296.156 277.17 294.588 277.859 293.239C278.556 291.883 279.545 290.826 280.825 290.069C282.105 289.304 283.628 288.921 285.393 288.921C286.916 288.921 288.249 289.197 289.393 289.75C290.537 290.304 291.442 291.08 292.109 292.08C292.776 293.08 293.143 294.254 293.211 295.603H288.643C288.514 294.732 288.173 294.031 287.62 293.5C287.075 292.963 286.359 292.694 285.473 292.694C284.723 292.694 284.067 292.898 283.507 293.307C282.954 293.709 282.522 294.296 282.211 295.069C281.901 295.841 281.745 296.777 281.745 297.875C281.745 298.989 281.897 299.936 282.2 300.716C282.511 301.497 282.946 302.091 283.507 302.5C284.067 302.91 284.723 303.114 285.473 303.114C286.026 303.114 286.522 303 286.961 302.773C287.408 302.546 287.776 302.216 288.064 301.785C288.359 301.345 288.552 300.819 288.643 300.205H293.211C293.136 301.538 292.772 302.713 292.12 303.728C291.477 304.735 290.586 305.523 289.45 306.091C288.314 306.66 286.969 306.944 285.416 306.944Z"/>
<path d="M301.152 283.33V306.603H296.311V283.33H301.152Z"/>
<path d="M312.984 306.944C311.189 306.944 309.643 306.58 308.348 305.853C307.06 305.118 306.067 304.08 305.37 302.739C304.673 301.391 304.325 299.796 304.325 297.955C304.325 296.16 304.673 294.584 305.37 293.228C306.067 291.872 307.048 290.815 308.314 290.057C309.586 289.3 311.079 288.921 312.791 288.921C313.942 288.921 315.014 289.107 316.007 289.478C317.007 289.841 317.878 290.391 318.62 291.125C319.37 291.86 319.954 292.785 320.37 293.898C320.787 295.004 320.995 296.3 320.995 297.785V299.114H306.257V296.114H316.439C316.439 295.417 316.287 294.8 315.984 294.262C315.681 293.724 315.261 293.304 314.723 293C314.192 292.69 313.575 292.535 312.87 292.535C312.136 292.535 311.484 292.705 310.916 293.046C310.355 293.379 309.916 293.83 309.598 294.398C309.28 294.959 309.117 295.584 309.109 296.273V299.125C309.109 299.989 309.268 300.735 309.586 301.364C309.912 301.993 310.37 302.478 310.961 302.819C311.552 303.16 312.253 303.33 313.064 303.33C313.602 303.33 314.094 303.254 314.541 303.103C314.988 302.951 315.37 302.724 315.689 302.421C316.007 302.118 316.249 301.747 316.416 301.307L320.893 301.603C320.666 302.679 320.2 303.618 319.495 304.421C318.798 305.216 317.897 305.838 316.791 306.285C315.692 306.724 314.423 306.944 312.984 306.944Z"/>
</mask>
<path d="M211 249.387V245.33H230.113V249.387H222.988V268.603H218.125V249.387H211Z" stroke="#21CD9C" stroke-width="2" mask="url(#path-2-outside-1_294_787)"/>
<path d="M231.358 268.603V251.148H236.051V254.194H236.233C236.551 253.11 237.085 252.292 237.835 251.739C238.585 251.179 239.449 250.898 240.426 250.898C240.668 250.898 240.93 250.913 241.21 250.944C241.49 250.974 241.736 251.016 241.949 251.069V255.364C241.721 255.296 241.407 255.235 241.005 255.182C240.604 255.129 240.236 255.103 239.903 255.103C239.191 255.103 238.555 255.258 237.994 255.569C237.441 255.872 237.002 256.296 236.676 256.841C236.358 257.387 236.199 258.016 236.199 258.728V268.603H231.358Z" stroke="#21CD9C" stroke-width="2" mask="url(#path-2-outside-1_294_787)"/>
<path d="M248.929 268.932C247.815 268.932 246.823 268.739 245.951 268.353C245.08 267.959 244.391 267.379 243.883 266.614C243.383 265.841 243.133 264.879 243.133 263.728C243.133 262.758 243.311 261.944 243.667 261.285C244.023 260.625 244.508 260.095 245.122 259.694C245.735 259.292 246.432 258.989 247.213 258.785C248.001 258.58 248.826 258.436 249.69 258.353C250.705 258.247 251.523 258.148 252.145 258.057C252.766 257.959 253.217 257.815 253.497 257.625C253.777 257.436 253.917 257.156 253.917 256.785V256.716C253.917 255.997 253.69 255.44 253.235 255.046C252.789 254.652 252.152 254.455 251.326 254.455C250.455 254.455 249.762 254.648 249.247 255.035C248.732 255.413 248.391 255.891 248.224 256.466L243.747 256.103C243.974 255.042 244.421 254.125 245.088 253.353C245.754 252.572 246.614 251.974 247.667 251.557C248.728 251.133 249.955 250.921 251.349 250.921C252.319 250.921 253.247 251.035 254.133 251.262C255.027 251.489 255.819 251.841 256.508 252.319C257.205 252.796 257.754 253.41 258.156 254.16C258.557 254.902 258.758 255.792 258.758 256.83V268.603H254.167V266.182H254.031C253.751 266.728 253.376 267.209 252.906 267.625C252.436 268.035 251.872 268.357 251.213 268.591C250.554 268.819 249.792 268.932 248.929 268.932ZM250.315 265.591C251.027 265.591 251.656 265.451 252.201 265.171C252.747 264.883 253.175 264.497 253.485 264.012C253.796 263.527 253.951 262.978 253.951 262.364V260.512C253.8 260.61 253.592 260.701 253.326 260.785C253.069 260.86 252.777 260.932 252.451 261C252.126 261.061 251.8 261.118 251.474 261.171C251.148 261.216 250.853 261.258 250.588 261.296C250.02 261.379 249.523 261.512 249.099 261.694C248.675 261.875 248.345 262.122 248.11 262.432C247.876 262.735 247.758 263.114 247.758 263.569C247.758 264.228 247.997 264.732 248.474 265.08C248.959 265.421 249.573 265.591 250.315 265.591Z" stroke="#21CD9C" stroke-width="2" mask="url(#path-2-outside-1_294_787)"/>
<path d="M262.514 268.603V251.148H267.355V268.603H262.514ZM264.946 248.898C264.226 248.898 263.609 248.66 263.093 248.182C262.586 247.697 262.332 247.118 262.332 246.444C262.332 245.777 262.586 245.205 263.093 244.728C263.609 244.243 264.226 244 264.946 244C265.665 244 266.279 244.243 266.787 244.728C267.302 245.205 267.559 245.777 267.559 246.444C267.559 247.118 267.302 247.697 266.787 248.182C266.279 248.66 265.665 248.898 264.946 248.898Z" stroke="#21CD9C" stroke-width="2" mask="url(#path-2-outside-1_294_787)"/>
<path d="M276.074 258.512V268.603H271.233V251.148H275.846V254.228H276.051C276.437 253.213 277.085 252.41 277.994 251.819C278.903 251.22 280.005 250.921 281.301 250.921C282.513 250.921 283.57 251.186 284.471 251.716C285.373 252.247 286.074 253.004 286.574 253.989C287.074 254.966 287.324 256.133 287.324 257.489V268.603H282.483V258.353C282.49 257.285 282.218 256.451 281.664 255.853C281.111 255.247 280.35 254.944 279.38 254.944C278.729 254.944 278.153 255.084 277.653 255.364C277.161 255.644 276.774 256.054 276.494 256.591C276.221 257.122 276.081 257.762 276.074 258.512Z" stroke="#21CD9C" stroke-width="2" mask="url(#path-2-outside-1_294_787)"/>
<path d="M291.139 268.603V251.148H295.98V268.603H291.139ZM293.571 248.898C292.851 248.898 292.234 248.66 291.718 248.182C291.211 247.697 290.957 247.118 290.957 246.444C290.957 245.777 291.211 245.205 291.718 244.728C292.234 244.243 292.851 244 293.571 244C294.29 244 294.904 244.243 295.412 244.728C295.927 245.205 296.184 245.777 296.184 246.444C296.184 247.118 295.927 247.697 295.412 248.182C294.904 248.66 294.29 248.898 293.571 248.898Z" stroke="#21CD9C" stroke-width="2" mask="url(#path-2-outside-1_294_787)"/>
<path d="M304.699 258.512V268.603H299.858V251.148H304.471V254.228H304.676C305.062 253.213 305.71 252.41 306.619 251.819C307.528 251.22 308.63 250.921 309.926 250.921C311.138 250.921 312.195 251.186 313.096 251.716C313.998 252.247 314.699 253.004 315.199 253.989C315.699 254.966 315.949 256.133 315.949 257.489V268.603H311.108V258.353C311.115 257.285 310.843 256.451 310.289 255.853C309.736 255.247 308.975 254.944 308.005 254.944C307.354 254.944 306.778 255.084 306.278 255.364C305.786 255.644 305.399 256.054 305.119 256.591C304.846 257.122 304.706 257.762 304.699 258.512Z" stroke="#21CD9C" stroke-width="2" mask="url(#path-2-outside-1_294_787)"/>
<path d="M327.628 275.512C326.059 275.512 324.715 275.296 323.593 274.864C322.48 274.44 321.593 273.86 320.934 273.125C320.275 272.391 319.847 271.565 319.65 270.648L324.128 270.046C324.264 270.394 324.48 270.72 324.775 271.023C325.071 271.326 325.461 271.569 325.946 271.75C326.438 271.94 327.037 272.035 327.741 272.035C328.794 272.035 329.662 271.777 330.343 271.262C331.033 270.754 331.378 269.902 331.378 268.705V265.512H331.173C330.961 265.997 330.643 266.455 330.218 266.887C329.794 267.319 329.249 267.671 328.582 267.944C327.915 268.216 327.12 268.353 326.196 268.353C324.885 268.353 323.692 268.05 322.616 267.444C321.548 266.83 320.696 265.894 320.059 264.637C319.431 263.372 319.116 261.773 319.116 259.841C319.116 257.864 319.438 256.213 320.082 254.887C320.726 253.561 321.582 252.569 322.65 251.91C323.726 251.25 324.904 250.921 326.184 250.921C327.162 250.921 327.98 251.088 328.639 251.421C329.298 251.747 329.828 252.156 330.23 252.648C330.639 253.133 330.953 253.61 331.173 254.08H331.355V251.148H336.162V268.773C336.162 270.258 335.798 271.5 335.071 272.5C334.343 273.5 333.336 274.25 332.048 274.75C330.768 275.258 329.294 275.512 327.628 275.512ZM327.73 264.716C328.51 264.716 329.169 264.523 329.707 264.137C330.253 263.743 330.669 263.182 330.957 262.455C331.253 261.72 331.4 260.841 331.4 259.819C331.4 258.796 331.256 257.91 330.968 257.16C330.681 256.402 330.264 255.815 329.718 255.398C329.173 254.982 328.51 254.773 327.73 254.773C326.934 254.773 326.264 254.989 325.718 255.421C325.173 255.845 324.76 256.436 324.48 257.194C324.2 257.951 324.059 258.826 324.059 259.819C324.059 260.826 324.2 261.697 324.48 262.432C324.768 263.16 325.181 263.724 325.718 264.125C326.264 264.519 326.934 264.716 327.73 264.716Z" stroke="#21CD9C" stroke-width="2" mask="url(#path-2-outside-1_294_787)"/>
<path d="M255.686 291.478H250.709C250.618 290.834 250.432 290.262 250.152 289.762C249.871 289.254 249.512 288.822 249.072 288.466C248.633 288.11 248.125 287.838 247.549 287.648C246.981 287.459 246.364 287.364 245.697 287.364C244.493 287.364 243.443 287.663 242.549 288.262C241.655 288.853 240.962 289.716 240.47 290.853C239.977 291.982 239.731 293.353 239.731 294.966C239.731 296.625 239.977 298.019 240.47 299.148C240.97 300.277 241.667 301.129 242.561 301.705C243.455 302.281 244.489 302.569 245.663 302.569C246.322 302.569 246.932 302.482 247.493 302.307C248.061 302.133 248.565 301.879 249.004 301.546C249.443 301.205 249.807 300.792 250.095 300.307C250.39 299.822 250.595 299.269 250.709 298.648L255.686 298.671C255.557 299.739 255.235 300.769 254.72 301.762C254.212 302.747 253.527 303.629 252.663 304.41C251.807 305.182 250.784 305.796 249.595 306.25C248.413 306.697 247.076 306.921 245.584 306.921C243.508 306.921 241.652 306.451 240.015 305.512C238.387 304.572 237.099 303.213 236.152 301.432C235.212 299.652 234.743 297.497 234.743 294.966C234.743 292.429 235.22 290.269 236.174 288.489C237.129 286.709 238.424 285.353 240.061 284.421C241.697 283.482 243.538 283.012 245.584 283.012C246.932 283.012 248.182 283.201 249.334 283.58C250.493 283.959 251.519 284.512 252.413 285.239C253.307 285.959 254.034 286.841 254.595 287.887C255.163 288.932 255.527 290.129 255.686 291.478Z" stroke="#21CD9C" stroke-width="2" mask="url(#path-2-outside-1_294_787)"/>
<path d="M262.331 313.148C261.717 313.148 261.141 313.099 260.603 313C260.073 312.91 259.634 312.792 259.285 312.648L260.376 309.035C260.944 309.209 261.456 309.304 261.91 309.319C262.372 309.334 262.77 309.228 263.103 309C263.444 308.773 263.721 308.387 263.933 307.841L264.217 307.103L257.956 289.148H263.047L266.66 301.966H266.842L270.49 289.148H275.615L268.831 308.489C268.505 309.429 268.062 310.247 267.501 310.944C266.948 311.648 266.247 312.19 265.399 312.569C264.55 312.955 263.528 313.148 262.331 313.148Z" stroke="#21CD9C" stroke-width="2" mask="url(#path-2-outside-1_294_787)"/>
<path d="M285.416 306.944C283.628 306.944 282.09 306.565 280.802 305.807C279.522 305.042 278.537 303.982 277.848 302.625C277.166 301.269 276.825 299.709 276.825 297.944C276.825 296.156 277.17 294.588 277.859 293.239C278.556 291.883 279.545 290.826 280.825 290.069C282.105 289.304 283.628 288.921 285.393 288.921C286.916 288.921 288.249 289.197 289.393 289.75C290.537 290.304 291.442 291.08 292.109 292.08C292.776 293.08 293.143 294.254 293.211 295.603H288.643C288.514 294.732 288.173 294.031 287.62 293.5C287.075 292.963 286.359 292.694 285.473 292.694C284.723 292.694 284.067 292.898 283.507 293.307C282.954 293.709 282.522 294.296 282.211 295.069C281.901 295.841 281.745 296.777 281.745 297.875C281.745 298.989 281.897 299.936 282.2 300.716C282.511 301.497 282.946 302.091 283.507 302.5C284.067 302.91 284.723 303.114 285.473 303.114C286.026 303.114 286.522 303 286.961 302.773C287.408 302.546 287.776 302.216 288.064 301.785C288.359 301.345 288.552 300.819 288.643 300.205H293.211C293.136 301.538 292.772 302.713 292.12 303.728C291.477 304.735 290.586 305.523 289.45 306.091C288.314 306.66 286.969 306.944 285.416 306.944Z" stroke="#21CD9C" stroke-width="2" mask="url(#path-2-outside-1_294_787)"/>
<path d="M301.152 283.33V306.603H296.311V283.33H301.152Z" stroke="#21CD9C" stroke-width="2" mask="url(#path-2-outside-1_294_787)"/>
<path d="M312.984 306.944C311.189 306.944 309.643 306.58 308.348 305.853C307.06 305.118 306.067 304.08 305.37 302.739C304.673 301.391 304.325 299.796 304.325 297.955C304.325 296.16 304.673 294.584 305.37 293.228C306.067 291.872 307.048 290.815 308.314 290.057C309.586 289.3 311.079 288.921 312.791 288.921C313.942 288.921 315.014 289.107 316.007 289.478C317.007 289.841 317.878 290.391 318.62 291.125C319.37 291.86 319.954 292.785 320.37 293.898C320.787 295.004 320.995 296.3 320.995 297.785V299.114H306.257V296.114H316.439C316.439 295.417 316.287 294.8 315.984 294.262C315.681 293.724 315.261 293.304 314.723 293C314.192 292.69 313.575 292.535 312.87 292.535C312.136 292.535 311.484 292.705 310.916 293.046C310.355 293.379 309.916 293.83 309.598 294.398C309.28 294.959 309.117 295.584 309.109 296.273V299.125C309.109 299.989 309.268 300.735 309.586 301.364C309.912 301.993 310.37 302.478 310.961 302.819C311.552 303.16 312.253 303.33 313.064 303.33C313.602 303.33 314.094 303.254 314.541 303.103C314.988 302.951 315.37 302.724 315.689 302.421C316.007 302.118 316.249 301.747 316.416 301.307L320.893 301.603C320.666 302.679 320.2 303.618 319.495 304.421C318.798 305.216 317.897 305.838 316.791 306.285C315.692 306.724 314.423 306.944 312.984 306.944Z" stroke="#21CD9C" stroke-width="2" mask="url(#path-2-outside-1_294_787)"/>
</g>
</g>
<g id="outer">
<g id="Activities">
<text id="Activities_2" transform="translate(307.286 466.239) rotate(179.518)" stroke="#21CD9C" xml:space="preserve" style="white-space: pre" font-family="Inter" font-size="16" font-weight="bold" letter-spacing="0em"><tspan x="0.304688" y="15.3182">Activities</tspan></text>
<circle id="Ellipse 29" cx="269.036" cy="457.613" r="59.5" transform="rotate(-44.2387 269.036 457.613)" stroke="#21CD9C"/>
</g>
<g id="Monthly Meeting">
<circle id="Ellipse 29_2" cx="88.2839" cy="269.308" r="59.5" transform="rotate(-44.2387 88.2839 269.308)" stroke="#21CD9C"/>
<text id="Monthly Meeting_2" transform="translate(69.7019 302.053) rotate(-90.2735)" stroke="#21CD9C" xml:space="preserve" style="white-space: pre" font-family="Inter" font-size="16" font-weight="bold" letter-spacing="0em"><tspan x="0.234375" y="15.3182">Monthly&#10;</tspan><tspan x="0.289062" y="34.3182">Meeting</tspan></text>
</g>
<g id="online">
<circle id="Ellipse 32" cx="271.645" cy="87.8042" r="59.5" transform="rotate(-44.2387 271.645 87.8042)" stroke="#21CD9C"/>
<text id="Online Courses" transform="translate(239.021 69.0881) rotate(0.698111)" stroke="#21CD9C" xml:space="preserve" style="white-space: pre" font-family="Inter" font-size="16" font-weight="bold" letter-spacing="0em"><tspan x="5.79688" y="15.3182">Online &#10;</tspan><tspan x="0.0625" y="34.3182">Courses</tspan></text>
</g>
<g id="discussion">
<circle id="Ellipse 31" cx="458.08" cy="273.331" r="59.5" transform="rotate(-44.2387 458.08 273.331)" stroke="#21CD9C"/>
<text id="Discussions" transform="translate(466.026 224.762) rotate(88.6228)" stroke="#21CD9C" xml:space="preserve" style="white-space: pre" font-family="Inter" font-size="16" font-weight="bold" letter-spacing="0em"><tspan x="0.296875" y="15.3182">Discussions</tspan></text>
</g>
</g>
</g>
</svg>
