<svg width="740" height="767" viewBox="0 0 740 767" fill="none" xmlns="http://www.w3.org/2000/svg">
<g id="new cycle">
<g id="arrow">
<g id="arrow_2">
<path id="Vector 132" d="M216.611 687.568C436.353 802.174 585.521 616.594 585.521 616.594C425.431 693.577 360.093 681.57 251.988 641.095L216.611 687.568Z" fill="#21CD9C"/>
<path id="Polygon 3" d="M155.802 635.26L270.072 620.252L200.529 710.292L155.802 635.26Z" fill="#21CD9C"/>
<g id="Splitted text">
<text id="0 - D" transform="translate(503.49 682.119) rotate(161.265)" fill="black" xml:space="preserve" style="white-space: pre" font-family="Inter" font-size="20" font-weight="bold" letter-spacing="0em"><tspan x="0" y="19.2727">D</tspan></text>
<text id="1 - a" transform="translate(490.396 686.81) rotate(160.893)" fill="black" xml:space="preserve" style="white-space: pre" font-family="Inter" font-size="20" font-weight="bold" letter-spacing="0em"><tspan x="0" y="19.2727">a</tspan></text>
<text id="2 - i" transform="translate(478.317 690.763) rotate(162.044)" fill="black" xml:space="preserve" style="white-space: pre" font-family="Inter" font-size="20" font-weight="bold" letter-spacing="0em"><tspan x="0" y="19.2727">i</tspan></text>
<text id="3 - l" transform="translate(472.276 692.798) rotate(163.573)" fill="black" xml:space="preserve" style="white-space: pre" font-family="Inter" font-size="20" font-weight="bold" letter-spacing="0em"><tspan x="0" y="19.2727">l</tspan></text>
<text id="4 - y" transform="translate(466.229 695.146) rotate(164.942)" fill="black" xml:space="preserve" style="white-space: pre" font-family="Inter" font-size="20" font-weight="bold" letter-spacing="0em"><tspan x="0" y="19.2727">y</tspan></text>
<text id="6 - S" transform="translate(450.142 699.444) rotate(165.655)" fill="black" xml:space="preserve" style="white-space: pre" font-family="Inter" font-size="20" font-weight="bold" letter-spacing="0em"><tspan x="0" y="19.2727">S</tspan></text>
<text id="7 - t" transform="translate(437.667 702.741) rotate(165.307)" fill="black" xml:space="preserve" style="white-space: pre" font-family="Inter" font-size="20" font-weight="bold" letter-spacing="0em"><tspan x="0" y="19.2727">t</tspan></text>
<text id="8 - a" transform="translate(429.208 704.851) rotate(166.79)" fill="black" xml:space="preserve" style="white-space: pre" font-family="Inter" font-size="20" font-weight="bold" letter-spacing="0em"><tspan x="0" y="19.2727">a</tspan></text>
<text id="9 - n" transform="translate(415.981 707.372) rotate(171.643)" fill="black" xml:space="preserve" style="white-space: pre" font-family="Inter" font-size="20" font-weight="bold" letter-spacing="0em"><tspan x="0" y="19.2727">n</tspan></text>
<text id="10 - d" transform="translate(402.943 709.218) rotate(176.529)" fill="black" xml:space="preserve" style="white-space: pre" font-family="Inter" font-size="20" font-weight="bold" letter-spacing="0em"><tspan x="0" y="19.2727">d</tspan></text>
<text id="12 - U" transform="translate(386.784 710.057) rotate(178.042)" fill="black" xml:space="preserve" style="white-space: pre" font-family="Inter" font-size="20" font-weight="bold" letter-spacing="0em"><tspan x="0" y="19.2727">U</tspan></text>
<text id="13 - p" transform="translate(371.784 713.652) rotate(-178.725)" fill="black" xml:space="preserve" style="white-space: pre" font-family="Inter" font-size="20" font-weight="bold" letter-spacing="0em"><tspan x="0" y="19.2727">p</tspan></text>
<text id="15 - M" transform="translate(351.968 710.265) rotate(-174.236)" fill="black" xml:space="preserve" style="white-space: pre" font-family="Inter" font-size="20" font-weight="bold" letter-spacing="0em"><tspan x="0" y="19.2727">M</tspan></text>
<text id="16 - e" transform="translate(332.926 707.893) rotate(-169.218)" fill="black" xml:space="preserve" style="white-space: pre" font-family="Inter" font-size="20" font-weight="bold" letter-spacing="0em"><tspan x="0" y="19.2727">e</tspan></text>
<text id="17 - e" transform="translate(320.975 705.174) rotate(-168.527)" fill="black" xml:space="preserve" style="white-space: pre" font-family="Inter" font-size="20" font-weight="bold" letter-spacing="0em"><tspan x="0" y="19.2727">e</tspan></text>
<text id="18 - t" transform="translate(308.88 702.348) rotate(-166.718)" fill="black" xml:space="preserve" style="white-space: pre" font-family="Inter" font-size="20" font-weight="bold" letter-spacing="0em"><tspan x="0" y="19.2727">t</tspan></text>
<text id="19 - i" transform="translate(300.422 700.456) rotate(-165.359)" fill="black" xml:space="preserve" style="white-space: pre" font-family="Inter" font-size="20" font-weight="bold" letter-spacing="0em"><tspan x="0" y="19.2727">i</tspan></text>
<text id="20 - n" transform="translate(294.974 699.152) rotate(-164.05)" fill="black" xml:space="preserve" style="white-space: pre" font-family="Inter" font-size="20" font-weight="bold" letter-spacing="0em"><tspan x="0" y="19.2727">n</tspan></text>
<text id="21 - g" transform="translate(282.518 695.902) rotate(-161.478)" fill="black" xml:space="preserve" style="white-space: pre" font-family="Inter" font-size="20" font-weight="bold" letter-spacing="0em"><tspan x="0" y="19.2727">g</tspan></text>
</g>
</g>
<g id="arrow_3">
<path id="Vector 132_2" d="M655.625 536.003C788.702 326.93 616.636 162.356 616.636 162.356C679.568 328.473 661.987 392.537 612.366 496.76L655.625 536.003Z" fill="#21CD9C"/>
<path id="Polygon 3_2" d="M598.414 592.299L593.288 477.162L677.014 554.191L598.414 592.299Z" fill="#21CD9C"/>
<g id="Splitted text_2">
<text id="0 - A" transform="translate(693.231 332.076) rotate(87.4146)" fill="black" xml:space="preserve" style="white-space: pre" font-family="Inter" font-size="20" font-weight="bold" letter-spacing="0em"><tspan x="0" y="19.2727">A</tspan></text>
<text id="1 - c" transform="translate(695.574 348.364) rotate(94.2865)" fill="black" xml:space="preserve" style="white-space: pre" font-family="Inter" font-size="20" font-weight="bold" letter-spacing="0em"><tspan x="0" y="19.2727">c</tspan></text>
<text id="2 - t" transform="translate(695.527 360.412) rotate(94.2865)" fill="black" xml:space="preserve" style="white-space: pre" font-family="Inter" font-size="20" font-weight="bold" letter-spacing="0em"><tspan x="0" y="19.2727">t</tspan></text>
<text id="3 - i" transform="translate(694.726 369.376) rotate(94.2865)" fill="black" xml:space="preserve" style="white-space: pre" font-family="Inter" font-size="20" font-weight="bold" letter-spacing="0em"><tspan x="0" y="19.2727">i</tspan></text>
<text id="4 - v" transform="translate(693.965 376.336) rotate(94.2865)" fill="black" xml:space="preserve" style="white-space: pre" font-family="Inter" font-size="20" font-weight="bold" letter-spacing="0em"><tspan x="0" y="19.2727">v</tspan></text>
<text id="5 - i" transform="translate(692.866 389.29) rotate(94.2865)" fill="black" xml:space="preserve" style="white-space: pre" font-family="Inter" font-size="20" font-weight="bold" letter-spacing="0em"><tspan x="0" y="19.2727">i</tspan></text>
<text id="6 - t" transform="translate(691.385 397.124) rotate(98.7365)" fill="black" xml:space="preserve" style="white-space: pre" font-family="Inter" font-size="20" font-weight="bold" letter-spacing="0em"><tspan x="0" y="19.2727">t</tspan></text>
<text id="7 - i" transform="translate(690.504 406.04) rotate(98.5535)" fill="black" xml:space="preserve" style="white-space: pre" font-family="Inter" font-size="20" font-weight="bold" letter-spacing="0em"><tspan x="0" y="19.2727">i</tspan></text>
<text id="8 - e" transform="translate(688.796 412.534) rotate(101.369)" fill="black" xml:space="preserve" style="white-space: pre" font-family="Inter" font-size="20" font-weight="bold" letter-spacing="0em"><tspan x="0" y="19.2727">e</tspan></text>
<text id="9 - s" transform="translate(685.565 425.616) rotate(104.562)" fill="black" xml:space="preserve" style="white-space: pre" font-family="Inter" font-size="20" font-weight="bold" letter-spacing="0em"><tspan x="0" y="19.2727">s</tspan></text>
</g>
</g>
<g id="arrow_4">
<path id="Vector 132_3" d="M519.677 73.8879C307.258 -53.7811 147.153 122.45 147.153 122.45C311.6 55.2767 376.094 71.2085 481.557 118.139L519.677 73.8879Z" fill="#21CD9C"/>
<path id="Polygon 3_3" d="M577.422 129.636L462.454 137.714L537.31 52.0394L577.422 129.636Z" fill="#21CD9C"/>
<g id="Splitted text_3">
<text id="0 - D_2" transform="translate(305.93 43.0335) rotate(-3.13348)" fill="black" xml:space="preserve" style="white-space: pre" font-family="Inter" font-size="20" font-weight="bold" letter-spacing="0em"><tspan x="0" y="19.2727">D</tspan></text>
<text id="1 - i" transform="translate(321.539 40.9148) rotate(-3.43079)" fill="black" xml:space="preserve" style="white-space: pre" font-family="Inter" font-size="20" font-weight="bold" letter-spacing="0em"><tspan x="0" y="19.2727">i</tspan></text>
<text id="2 - s" transform="translate(329.685 40.3106) rotate(1.83086)" fill="black" xml:space="preserve" style="white-space: pre" font-family="Inter" font-size="20" font-weight="bold" letter-spacing="0em"><tspan x="0" y="19.2727">s</tspan></text>
<text id="3 - c" transform="translate(342.264 40.1408) rotate(3.12869)" fill="black" xml:space="preserve" style="white-space: pre" font-family="Inter" font-size="20" font-weight="bold" letter-spacing="0em"><tspan x="0" y="19.2727">c</tspan></text>
<text id="4 - u" transform="translate(354.248 40.8115) rotate(4.38088)" fill="black" xml:space="preserve" style="white-space: pre" font-family="Inter" font-size="20" font-weight="bold" letter-spacing="0em"><tspan x="0" y="19.2727">u</tspan></text>
<text id="5 - s" transform="translate(366.202 41.8716) rotate(3.75668)" fill="black" xml:space="preserve" style="white-space: pre" font-family="Inter" font-size="20" font-weight="bold" letter-spacing="0em"><tspan x="0" y="19.2727">s</tspan></text>
<text id="6 - s" transform="translate(378.704 42.6989) rotate(5.7115)" fill="black" xml:space="preserve" style="white-space: pre" font-family="Inter" font-size="20" font-weight="bold" letter-spacing="0em"><tspan x="0" y="19.2727">s</tspan></text>
<text id="7 - i_2" transform="translate(390.88 44.6494) rotate(8.79691)" fill="black" xml:space="preserve" style="white-space: pre" font-family="Inter" font-size="20" font-weight="bold" letter-spacing="0em"><tspan x="0" y="19.2727">i</tspan></text>
<text id="8 - o" transform="translate(397.3 45.5502) rotate(10.3854)" fill="black" xml:space="preserve" style="white-space: pre" font-family="Inter" font-size="20" font-weight="bold" letter-spacing="0em"><tspan x="0" y="19.2727">o</tspan></text>
<text id="9 - n_2" transform="translate(409.895 48.1352) rotate(14.1587)" fill="black" xml:space="preserve" style="white-space: pre" font-family="Inter" font-size="20" font-weight="bold" letter-spacing="0em"><tspan x="0" y="19.2727">n</tspan></text>
<text id="10 - s" transform="translate(422.122 51.1597) rotate(15.706)" fill="black" xml:space="preserve" style="white-space: pre" font-family="Inter" font-size="20" font-weight="bold" letter-spacing="0em"><tspan x="0" y="19.2727">s</tspan></text>
</g>
</g>
<g id="arrow_5">
<path id="Vector 132_4" d="M77.2216 232.85C-43.2354 449.44 138.277 603.531 138.277 603.531C65.6148 441.434 79.3698 376.441 122.729 269.461L77.2216 232.85Z" fill="#21CD9C"/>
<path id="Polygon 3_4" d="M130.997 173.263L142.935 287.894L54.7927 215.961L130.997 173.263Z" fill="#21CD9C"/>
<g id="Splitted text_4">
<text id="0 - O" transform="translate(57.8043 458.933) rotate(-97.6912)" fill="black" xml:space="preserve" style="white-space: pre" font-family="Inter" font-size="20" font-weight="bold" letter-spacing="0em"><tspan x="0" y="19.2727">O</tspan></text>
<text id="1 - n" transform="translate(55.0461 442.675) rotate(-96.9889)" fill="black" xml:space="preserve" style="white-space: pre" font-family="Inter" font-size="20" font-weight="bold" letter-spacing="0em"><tspan x="0" y="19.2727">n</tspan></text>
<text id="2 - l" transform="translate(53.5944 428.463) rotate(-93.9386)" fill="black" xml:space="preserve" style="white-space: pre" font-family="Inter" font-size="20" font-weight="bold" letter-spacing="0em"><tspan x="0" y="19.2727">l</tspan></text>
<text id="3 - i_2" transform="translate(52.9577 421.365) rotate(-90.7227)" fill="black" xml:space="preserve" style="white-space: pre" font-family="Inter" font-size="20" font-weight="bold" letter-spacing="0em"><tspan x="0" y="19.2727">i</tspan></text>
<text id="4 - n" transform="translate(52.5574 415.296) rotate(-91.7227)" fill="black" xml:space="preserve" style="white-space: pre" font-family="Inter" font-size="20" font-weight="bold" letter-spacing="0em"><tspan x="0" y="19.2727">n</tspan></text>
<text id="5 - e" transform="translate(51.9827 401.834) rotate(-89.4556)" fill="black" xml:space="preserve" style="white-space: pre" font-family="Inter" font-size="20" font-weight="bold" letter-spacing="0em"><tspan x="0" y="19.2727">e</tspan></text>
<text id="7 - C" transform="translate(52.0386 383.311) rotate(-82.4837)" fill="black" xml:space="preserve" style="white-space: pre" font-family="Inter" font-size="20" font-weight="bold" letter-spacing="0em"><tspan x="0" y="19.2727">C</tspan></text>
<text id="8 - o_2" transform="translate(53.6163 367.389) rotate(-82.4837)" fill="black" xml:space="preserve" style="white-space: pre" font-family="Inter" font-size="20" font-weight="bold" letter-spacing="0em"><tspan x="0" y="19.2727">o</tspan></text>
<text id="9 - u" transform="translate(55.459 354.556) rotate(-78.0947)" fill="black" xml:space="preserve" style="white-space: pre" font-family="Inter" font-size="20" font-weight="bold" letter-spacing="0em"><tspan x="0" y="19.2727">u</tspan></text>
<text id="10 - r" transform="translate(57.7555 342.509) rotate(-77.0558)" fill="black" xml:space="preserve" style="white-space: pre" font-family="Inter" font-size="20" font-weight="bold" letter-spacing="0em"><tspan x="0" y="19.2727">r</tspan></text>
<text id="11 - s" transform="translate(59.1739 333.473) rotate(-72.0554)" fill="black" xml:space="preserve" style="white-space: pre" font-family="Inter" font-size="20" font-weight="bold" letter-spacing="0em"><tspan x="0" y="19.2727">s</tspan></text>
<text id="12 - e" transform="translate(63.1969 322.591) rotate(-72.5077)" fill="black" xml:space="preserve" style="white-space: pre" font-family="Inter" font-size="20" font-weight="bold" letter-spacing="0em"><tspan x="0" y="19.2727">e</tspan></text>
<text id="13 - s" transform="translate(67.2907 310.517) rotate(-70.5497)" fill="black" xml:space="preserve" style="white-space: pre" font-family="Inter" font-size="20" font-weight="bold" letter-spacing="0em"><tspan x="0" y="19.2727">s</tspan></text>
</g>
</g>
</g>
<g id="core">
<circle id="Ellipse 27" cx="368.989" cy="379.987" r="150" fill="url(#paint0_linear_302_885)"/>
<g id="Training Cycle">
<path d="M274.986 336.066V329.981H303.657V336.066H292.969V364.89H285.674V336.066H274.986Z" fill="black"/>
<path d="M305.523 364.89V338.708H312.563V343.277H312.836C313.313 341.652 314.114 340.424 315.239 339.595C316.364 338.754 317.66 338.333 319.126 338.333C319.489 338.333 319.881 338.356 320.302 338.402C320.722 338.447 321.091 338.51 321.41 338.589V345.032C321.069 344.93 320.597 344.839 319.995 344.76C319.393 344.68 318.841 344.64 318.341 344.64C317.273 344.64 316.319 344.873 315.478 345.339C314.648 345.794 313.989 346.43 313.501 347.248C313.023 348.066 312.785 349.01 312.785 350.078V364.89H305.523Z" fill="black"/>
<path d="M331.88 365.385C330.209 365.385 328.721 365.095 327.414 364.515C326.107 363.924 325.073 363.055 324.312 361.907C323.562 360.748 323.187 359.305 323.187 357.578C323.187 356.123 323.454 354.902 323.988 353.913C324.522 352.924 325.249 352.129 326.17 351.527C327.09 350.924 328.135 350.47 329.306 350.163C330.488 349.856 331.726 349.64 333.022 349.515C334.545 349.356 335.772 349.208 336.704 349.072C337.635 348.924 338.312 348.708 338.732 348.424C339.153 348.14 339.363 347.72 339.363 347.163V347.061C339.363 345.981 339.022 345.146 338.34 344.555C337.67 343.964 336.715 343.669 335.476 343.669C334.17 343.669 333.13 343.958 332.357 344.538C331.584 345.106 331.073 345.822 330.823 346.686L324.107 346.14C324.448 344.549 325.118 343.174 326.118 342.015C327.118 340.845 328.408 339.947 329.988 339.322C331.579 338.686 333.42 338.367 335.51 338.367C336.965 338.367 338.357 338.538 339.687 338.879C341.028 339.22 342.215 339.748 343.249 340.464C344.295 341.18 345.118 342.1 345.721 343.225C346.323 344.339 346.624 345.674 346.624 347.231V364.89H339.738V361.26H339.533C339.113 362.078 338.55 362.799 337.846 363.424C337.141 364.038 336.295 364.521 335.306 364.873C334.317 365.214 333.175 365.385 331.88 365.385ZM333.959 360.373C335.028 360.373 335.971 360.163 336.789 359.742C337.607 359.311 338.249 358.731 338.715 358.004C339.181 357.277 339.414 356.453 339.414 355.532V352.754C339.187 352.902 338.874 353.038 338.476 353.163C338.09 353.277 337.653 353.385 337.164 353.487C336.675 353.578 336.187 353.663 335.698 353.742C335.209 353.811 334.766 353.873 334.368 353.93C333.516 354.055 332.772 354.254 332.135 354.527C331.499 354.799 331.005 355.169 330.653 355.635C330.3 356.089 330.124 356.657 330.124 357.339C330.124 358.328 330.482 359.083 331.198 359.606C331.925 360.117 332.846 360.373 333.959 360.373Z" fill="black"/>
<path d="M352.258 364.89V338.708H359.519V364.89H352.258ZM355.905 335.333C354.826 335.333 353.9 334.975 353.127 334.26C352.366 333.532 351.985 332.663 351.985 331.652C351.985 330.652 352.366 329.794 353.127 329.078C353.9 328.35 354.826 327.987 355.905 327.987C356.985 327.987 357.905 328.35 358.667 329.078C359.439 329.794 359.826 330.652 359.826 331.652C359.826 332.663 359.439 333.532 358.667 334.26C357.905 334.975 356.985 335.333 355.905 335.333Z" fill="black"/>
<path d="M372.597 349.754V364.89H365.336V338.708H372.256V343.328H372.563C373.143 341.805 374.114 340.6 375.478 339.714C376.841 338.816 378.495 338.367 380.438 338.367C382.256 338.367 383.841 338.765 385.194 339.561C386.546 340.356 387.597 341.492 388.347 342.97C389.097 344.436 389.472 346.186 389.472 348.22V364.89H382.211V349.515C382.222 347.913 381.813 346.663 380.983 345.765C380.154 344.856 379.012 344.402 377.557 344.402C376.58 344.402 375.716 344.612 374.966 345.032C374.228 345.453 373.648 346.066 373.228 346.873C372.819 347.669 372.608 348.629 372.597 349.754Z" fill="black"/>
<path d="M395.195 364.89V338.708H402.457V364.89H395.195ZM398.843 335.333C397.763 335.333 396.837 334.975 396.064 334.26C395.303 333.532 394.922 332.663 394.922 331.652C394.922 330.652 395.303 329.794 396.064 329.078C396.837 328.35 397.763 327.987 398.843 327.987C399.922 327.987 400.843 328.35 401.604 329.078C402.377 329.794 402.763 330.652 402.763 331.652C402.763 332.663 402.377 333.532 401.604 334.26C400.843 334.975 399.922 335.333 398.843 335.333Z" fill="black"/>
<path d="M415.535 349.754V364.89H408.273V338.708H415.194V343.328H415.501C416.08 341.805 417.052 340.6 418.415 339.714C419.779 338.816 421.432 338.367 423.376 338.367C425.194 338.367 426.779 338.765 428.131 339.561C429.483 340.356 430.535 341.492 431.285 342.97C432.035 344.436 432.41 346.186 432.41 348.22V364.89H425.148V349.515C425.16 347.913 424.751 346.663 423.921 345.765C423.091 344.856 421.949 344.402 420.495 344.402C419.518 344.402 418.654 344.612 417.904 345.032C417.165 345.453 416.586 346.066 416.165 346.873C415.756 347.669 415.546 348.629 415.535 349.754Z" fill="black"/>
<path d="M449.928 375.254C447.576 375.254 445.559 374.93 443.877 374.282C442.207 373.646 440.877 372.777 439.888 371.674C438.9 370.572 438.258 369.333 437.962 367.958L444.678 367.055C444.883 367.578 445.207 368.066 445.65 368.521C446.093 368.975 446.678 369.339 447.405 369.612C448.144 369.896 449.042 370.038 450.099 370.038C451.678 370.038 452.979 369.652 454.002 368.879C455.036 368.117 455.553 366.839 455.553 365.044V360.254H455.246C454.928 360.981 454.451 361.669 453.814 362.316C453.178 362.964 452.36 363.492 451.36 363.902C450.36 364.311 449.167 364.515 447.78 364.515C445.814 364.515 444.025 364.061 442.411 363.152C440.809 362.231 439.53 360.828 438.576 358.941C437.633 357.044 437.161 354.646 437.161 351.748C437.161 348.782 437.644 346.305 438.61 344.316C439.576 342.328 440.86 340.839 442.462 339.85C444.076 338.862 445.843 338.367 447.763 338.367C449.229 338.367 450.457 338.617 451.445 339.117C452.434 339.606 453.229 340.22 453.832 340.958C454.445 341.686 454.917 342.402 455.246 343.106H455.519V338.708H462.729V365.146C462.729 367.373 462.184 369.237 461.093 370.737C460.002 372.237 458.491 373.362 456.559 374.112C454.638 374.873 452.428 375.254 449.928 375.254ZM450.082 359.061C451.252 359.061 452.241 358.771 453.047 358.191C453.866 357.6 454.491 356.76 454.922 355.669C455.366 354.566 455.587 353.248 455.587 351.714C455.587 350.18 455.371 348.85 454.939 347.725C454.508 346.589 453.883 345.708 453.064 345.083C452.246 344.458 451.252 344.146 450.082 344.146C448.888 344.146 447.883 344.47 447.064 345.117C446.246 345.754 445.627 346.64 445.207 347.777C444.786 348.913 444.576 350.225 444.576 351.714C444.576 353.225 444.786 354.532 445.207 355.635C445.638 356.725 446.258 357.572 447.064 358.174C447.883 358.765 448.888 359.061 450.082 359.061Z" fill="black"/>
<path d="M342.015 399.203H334.55C334.413 398.237 334.135 397.379 333.714 396.629C333.294 395.867 332.754 395.22 332.095 394.686C331.436 394.152 330.675 393.742 329.811 393.458C328.959 393.174 328.032 393.032 327.032 393.032C325.226 393.032 323.652 393.481 322.311 394.379C320.97 395.265 319.93 396.561 319.192 398.265C318.453 399.958 318.084 402.015 318.084 404.436C318.084 406.924 318.453 409.015 319.192 410.708C319.942 412.402 320.987 413.68 322.328 414.544C323.669 415.407 325.22 415.839 326.981 415.839C327.97 415.839 328.885 415.708 329.726 415.447C330.578 415.186 331.334 414.805 331.993 414.305C332.652 413.794 333.197 413.174 333.629 412.447C334.072 411.72 334.379 410.89 334.55 409.958L342.015 409.992C341.822 411.595 341.339 413.14 340.567 414.629C339.805 416.106 338.777 417.43 337.481 418.6C336.197 419.76 334.663 420.68 332.879 421.362C331.106 422.032 329.101 422.367 326.862 422.367C323.748 422.367 320.964 421.663 318.51 420.254C316.067 418.845 314.135 416.805 312.714 414.135C311.305 411.464 310.601 408.231 310.601 404.436C310.601 400.629 311.317 397.39 312.748 394.72C314.18 392.049 316.123 390.015 318.578 388.617C321.032 387.208 323.794 386.504 326.862 386.504C328.885 386.504 330.76 386.788 332.487 387.356C334.226 387.924 335.765 388.754 337.106 389.845C338.447 390.924 339.538 392.248 340.379 393.816C341.231 395.385 341.777 397.18 342.015 399.203Z" fill="black"/>
<path d="M351.983 431.708C351.062 431.708 350.199 431.635 349.392 431.487C348.596 431.35 347.937 431.174 347.415 430.958L349.051 425.538C349.903 425.799 350.67 425.941 351.352 425.964C352.045 425.987 352.642 425.828 353.142 425.487C353.653 425.146 354.068 424.566 354.386 423.748L354.812 422.64L345.42 395.708H353.057L358.477 414.936H358.75L364.221 395.708H371.909L361.733 424.72C361.244 426.129 360.579 427.356 359.738 428.402C358.909 429.458 357.858 430.271 356.585 430.839C355.312 431.419 353.778 431.708 351.983 431.708Z" fill="black"/>
<path d="M386.611 422.402C383.929 422.402 381.622 421.833 379.69 420.697C377.77 419.549 376.292 417.958 375.258 415.924C374.236 413.89 373.724 411.549 373.724 408.902C373.724 406.22 374.241 403.867 375.275 401.845C376.321 399.811 377.804 398.225 379.724 397.089C381.645 395.941 383.929 395.367 386.577 395.367C388.861 395.367 390.861 395.782 392.577 396.612C394.292 397.441 395.65 398.606 396.65 400.106C397.65 401.606 398.202 403.367 398.304 405.39H391.452C391.258 404.083 390.747 403.032 389.917 402.237C389.099 401.43 388.025 401.027 386.696 401.027C385.571 401.027 384.588 401.333 383.747 401.947C382.917 402.549 382.27 403.43 381.804 404.589C381.338 405.748 381.105 407.152 381.105 408.799C381.105 410.47 381.332 411.89 381.787 413.061C382.253 414.231 382.906 415.123 383.747 415.737C384.588 416.35 385.571 416.657 386.696 416.657C387.525 416.657 388.27 416.487 388.929 416.146C389.599 415.805 390.15 415.311 390.582 414.663C391.025 414.004 391.315 413.214 391.452 412.294H398.304C398.19 414.294 397.645 416.055 396.667 417.578C395.702 419.089 394.366 420.271 392.662 421.123C390.957 421.975 388.94 422.402 386.611 422.402Z" fill="black"/>
<path d="M410.214 386.981V421.89H402.953V386.981H410.214Z" fill="black"/>
<path d="M427.963 422.402C425.27 422.402 422.952 421.856 421.008 420.765C419.077 419.663 417.588 418.106 416.542 416.095C415.497 414.072 414.974 411.68 414.974 408.919C414.974 406.225 415.497 403.862 416.542 401.828C417.588 399.794 419.059 398.208 420.957 397.072C422.866 395.936 425.105 395.367 427.673 395.367C429.4 395.367 431.008 395.646 432.497 396.203C433.997 396.748 435.304 397.572 436.417 398.674C437.542 399.777 438.417 401.163 439.042 402.833C439.667 404.492 439.98 406.436 439.98 408.663V410.657H417.872V406.157H433.145C433.145 405.112 432.917 404.186 432.463 403.379C432.008 402.572 431.378 401.941 430.571 401.487C429.775 401.021 428.849 400.788 427.792 400.788C426.69 400.788 425.713 401.044 424.861 401.555C424.02 402.055 423.361 402.731 422.883 403.583C422.406 404.424 422.162 405.362 422.15 406.396V410.674C422.15 411.97 422.389 413.089 422.866 414.032C423.355 414.975 424.042 415.703 424.929 416.214C425.815 416.725 426.866 416.981 428.082 416.981C428.889 416.981 429.628 416.867 430.298 416.64C430.969 416.413 431.542 416.072 432.02 415.617C432.497 415.163 432.861 414.606 433.111 413.947L439.827 414.39C439.486 416.004 438.787 417.413 437.73 418.617C436.685 419.811 435.332 420.742 433.673 421.413C432.025 422.072 430.122 422.402 427.963 422.402Z" fill="black"/>
</g>
</g>
</g>
<defs>
<linearGradient id="paint0_linear_302_885" x1="479.486" y1="259.987" x2="202.999" y2="571.999" gradientUnits="userSpaceOnUse">
<stop stop-color="#21CD9C"/>
<stop offset="1" stop-color="#21CD9C" stop-opacity="0"/>
</linearGradient>
</defs>
</svg>
