<svg width="757" height="729" viewBox="0 0 757 729" fill="none" xmlns="http://www.w3.org/2000/svg">
<g id="new cycle">
<g id="arrow">
<g id="arrow_2">
<path id="Vector 132" d="M229.07 651.788C439.853 782.139 602.179 607.951 602.179 607.951C436.894 673.035 372.607 656.287 267.748 608.023L229.07 651.788Z" fill="#21CD9C"/>
<path id="Polygon 3" d="M172.036 595.312L287.097 588.692L211.162 673.411L172.036 595.312Z" fill="#21CD9C"/>
<text id="Activities" transform="translate(423.541 687.096) rotate(-179.512)" fill="black" xml:space="preserve" style="white-space: pre" font-family="Inter" font-size="20" font-weight="bold" letter-spacing="0em"><tspan x="0" y="19.2727">Activities</tspan></text>
</g>
<g id="arrow_3">
<path id="Vector 132_2" d="M524.688 69.497C306.553 -48.1379 154.831 135.36 154.831 135.36C315.971 60.5992 381.137 73.5093 488.671 115.476L524.688 69.497Z" fill="#21CD9C"/>
<path id="Polygon 3_2" d="M584.968 122.495L470.502 135.92L541.284 46.8508L584.968 122.495Z" fill="#21CD9C"/>
<text id="Online Courses" fill="black" xml:space="preserve" style="white-space: pre" font-family="Inter" font-size="20" font-weight="bold" letter-spacing="0em"><tspan x="305.494" y="66.4761">Online Courses</tspan></text>
</g>
<g id="arrow_4">
<path id="Vector 132_3" d="M689.381 509.851C814.282 295.793 635.987 137.989 635.987 137.989C705.289 301.551 690.196 366.246 644.638 472.309L689.381 509.851Z" fill="#21CD9C"/>
<path id="Polygon 3_3" d="M634.387 568.315L624.817 453.462L711.457 527.199L634.387 568.315Z" fill="#21CD9C"/>
<text id="Discussions" transform="matrix(0 1 -1 0 723.494 303.203)" fill="black" xml:space="preserve" style="white-space: pre" font-family="Inter" font-size="20" font-weight="bold" letter-spacing="0em"><tspan x="0" y="19.2727">Discussions</tspan></text>
</g>
<g id="arrow_5">
<path id="Vector 132_4" d="M71.9701 214.975C-39.7725 436.187 147.728 582.933 147.728 582.933C68.6729 423.856 79.8307 358.367 118.899 249.746L71.9701 214.975Z" fill="#21CD9C"/>
<path id="Polygon 3_4" d="M123.332 153.296L139.822 267.361L48.8869 198.992L123.332 153.296Z" fill="#21CD9C"/>
<text id="Daily Stand Up Meeting" transform="translate(61.0778 473.427) rotate(-89.626)" fill="black" xml:space="preserve" style="white-space: pre" font-family="Inter" font-size="20" font-weight="bold" letter-spacing="0em"><tspan x="0" y="19.2727">Daily Stand Up Meeting</tspan></text>
</g>
</g>
<g id="core">
<circle id="Ellipse 27" cx="376.99" cy="360.987" r="150" fill="url(#paint0_linear_299_936)"/>
<g id="Training Cycle">
<path d="M282.987 317.067V310.982H311.658V317.067H300.97V345.891H293.675V317.067H282.987Z" fill="black"/>
<path d="M313.524 345.891V319.709H320.564V324.277H320.836C321.314 322.652 322.115 321.425 323.24 320.595C324.365 319.754 325.66 319.334 327.126 319.334C327.49 319.334 327.882 319.357 328.302 319.402C328.723 319.447 329.092 319.51 329.41 319.59V326.033C329.069 325.93 328.598 325.84 327.996 325.76C327.393 325.68 326.842 325.641 326.342 325.641C325.274 325.641 324.319 325.874 323.479 326.34C322.649 326.794 321.99 327.43 321.501 328.249C321.024 329.067 320.785 330.01 320.785 331.078V345.891H313.524Z" fill="black"/>
<path d="M339.881 346.385C338.21 346.385 336.721 346.095 335.415 345.516C334.108 344.925 333.074 344.055 332.312 342.908C331.562 341.749 331.187 340.305 331.187 338.578C331.187 337.124 331.454 335.902 331.988 334.913C332.523 333.925 333.25 333.129 334.17 332.527C335.091 331.925 336.136 331.47 337.307 331.163C338.488 330.857 339.727 330.641 341.023 330.516C342.545 330.357 343.773 330.209 344.704 330.072C345.636 329.925 346.312 329.709 346.733 329.425C347.153 329.141 347.363 328.72 347.363 328.163V328.061C347.363 326.982 347.023 326.146 346.341 325.555C345.67 324.965 344.716 324.669 343.477 324.669C342.17 324.669 341.131 324.959 340.358 325.538C339.585 326.107 339.074 326.822 338.824 327.686L332.108 327.141C332.449 325.55 333.119 324.175 334.119 323.016C335.119 321.845 336.409 320.947 337.988 320.322C339.579 319.686 341.42 319.368 343.511 319.368C344.966 319.368 346.358 319.538 347.687 319.879C349.028 320.22 350.216 320.749 351.25 321.465C352.295 322.18 353.119 323.101 353.721 324.226C354.324 325.34 354.625 326.675 354.625 328.232V345.891H347.738V342.26H347.534C347.113 343.078 346.551 343.8 345.846 344.425C345.142 345.038 344.295 345.521 343.307 345.874C342.318 346.215 341.176 346.385 339.881 346.385ZM341.96 341.374C343.028 341.374 343.971 341.163 344.79 340.743C345.608 340.311 346.25 339.732 346.716 339.004C347.182 338.277 347.415 337.453 347.415 336.533V333.754C347.187 333.902 346.875 334.038 346.477 334.163C346.091 334.277 345.653 334.385 345.165 334.487C344.676 334.578 344.187 334.663 343.699 334.743C343.21 334.811 342.767 334.874 342.369 334.93C341.517 335.055 340.773 335.254 340.136 335.527C339.5 335.8 339.006 336.169 338.653 336.635C338.301 337.09 338.125 337.658 338.125 338.34C338.125 339.328 338.483 340.084 339.199 340.607C339.926 341.118 340.846 341.374 341.96 341.374Z" fill="black"/>
<path d="M360.258 345.891V319.709H367.52V345.891H360.258ZM363.906 316.334C362.827 316.334 361.9 315.976 361.128 315.26C360.366 314.533 359.986 313.663 359.986 312.652C359.986 311.652 360.366 310.794 361.128 310.078C361.9 309.351 362.827 308.987 363.906 308.987C364.986 308.987 365.906 309.351 366.667 310.078C367.44 310.794 367.827 311.652 367.827 312.652C367.827 313.663 367.44 314.533 366.667 315.26C365.906 315.976 364.986 316.334 363.906 316.334Z" fill="black"/>
<path d="M380.598 330.754V345.891H373.337V319.709H380.257V324.328H380.564C381.143 322.805 382.115 321.601 383.479 320.715C384.842 319.817 386.496 319.368 388.439 319.368C390.257 319.368 391.842 319.766 393.194 320.561C394.547 321.357 395.598 322.493 396.348 323.97C397.098 325.436 397.473 327.186 397.473 329.22V345.891H390.212V330.516C390.223 328.913 389.814 327.663 388.984 326.766C388.155 325.857 387.013 325.402 385.558 325.402C384.581 325.402 383.717 325.612 382.967 326.033C382.229 326.453 381.649 327.067 381.229 327.874C380.819 328.669 380.609 329.629 380.598 330.754Z" fill="black"/>
<path d="M403.196 345.891V319.709H410.457V345.891H403.196ZM406.844 316.334C405.764 316.334 404.838 315.976 404.065 315.26C403.304 314.533 402.923 313.663 402.923 312.652C402.923 311.652 403.304 310.794 404.065 310.078C404.838 309.351 405.764 308.987 406.844 308.987C407.923 308.987 408.844 309.351 409.605 310.078C410.378 310.794 410.764 311.652 410.764 312.652C410.764 313.663 410.378 314.533 409.605 315.26C408.844 315.976 407.923 316.334 406.844 316.334Z" fill="black"/>
<path d="M423.535 330.754V345.891H416.274V319.709H423.194V324.328H423.501C424.081 322.805 425.052 321.601 426.416 320.715C427.78 319.817 429.433 319.368 431.376 319.368C433.194 319.368 434.78 319.766 436.132 320.561C437.484 321.357 438.535 322.493 439.285 323.97C440.035 325.436 440.41 327.186 440.41 329.22V345.891H433.149V330.516C433.16 328.913 432.751 327.663 431.922 326.766C431.092 325.857 429.95 325.402 428.496 325.402C427.518 325.402 426.655 325.612 425.905 326.033C425.166 326.453 424.587 327.067 424.166 327.874C423.757 328.669 423.547 329.629 423.535 330.754Z" fill="black"/>
<path d="M457.929 356.254C455.577 356.254 453.56 355.93 451.878 355.283C450.207 354.646 448.878 353.777 447.889 352.675C446.9 351.572 446.258 350.334 445.963 348.959L452.679 348.055C452.883 348.578 453.207 349.067 453.65 349.521C454.094 349.976 454.679 350.34 455.406 350.612C456.145 350.896 457.042 351.038 458.099 351.038C459.679 351.038 460.98 350.652 462.003 349.879C463.037 349.118 463.554 347.84 463.554 346.044V341.254H463.247C462.929 341.982 462.452 342.669 461.815 343.317C461.179 343.965 460.361 344.493 459.361 344.902C458.361 345.311 457.167 345.516 455.781 345.516C453.815 345.516 452.025 345.061 450.412 344.152C448.81 343.232 447.531 341.828 446.577 339.942C445.633 338.044 445.162 335.646 445.162 332.749C445.162 329.783 445.645 327.305 446.611 325.317C447.577 323.328 448.861 321.84 450.463 320.851C452.077 319.862 453.844 319.368 455.764 319.368C457.23 319.368 458.457 319.618 459.446 320.118C460.435 320.607 461.23 321.22 461.832 321.959C462.446 322.686 462.917 323.402 463.247 324.107H463.52V319.709H470.73V346.146C470.73 348.374 470.185 350.237 469.094 351.737C468.003 353.237 466.491 354.362 464.56 355.112C462.639 355.874 460.429 356.254 457.929 356.254ZM458.082 340.061C459.253 340.061 460.241 339.771 461.048 339.192C461.866 338.601 462.491 337.76 462.923 336.669C463.366 335.567 463.588 334.249 463.588 332.715C463.588 331.18 463.372 329.851 462.94 328.726C462.508 327.59 461.883 326.709 461.065 326.084C460.247 325.459 459.253 325.146 458.082 325.146C456.889 325.146 455.883 325.47 455.065 326.118C454.247 326.754 453.628 327.641 453.207 328.777C452.787 329.913 452.577 331.226 452.577 332.715C452.577 334.226 452.787 335.533 453.207 336.635C453.639 337.726 454.258 338.572 455.065 339.175C455.883 339.766 456.889 340.061 458.082 340.061Z" fill="black"/>
<path d="M350.016 380.203H342.55C342.414 379.237 342.136 378.379 341.715 377.629C341.295 376.868 340.755 376.22 340.096 375.686C339.437 375.152 338.675 374.743 337.812 374.459C336.959 374.175 336.033 374.033 335.033 374.033C333.226 374.033 331.653 374.482 330.312 375.379C328.971 376.266 327.931 377.561 327.192 379.266C326.454 380.959 326.084 383.016 326.084 385.436C326.084 387.925 326.454 390.016 327.192 391.709C327.942 393.402 328.988 394.68 330.329 395.544C331.67 396.408 333.221 396.84 334.982 396.84C335.971 396.84 336.886 396.709 337.726 396.447C338.579 396.186 339.334 395.805 339.993 395.305C340.653 394.794 341.198 394.175 341.63 393.447C342.073 392.72 342.38 391.891 342.55 390.959L350.016 390.993C349.823 392.595 349.34 394.141 348.567 395.629C347.806 397.107 346.778 398.43 345.482 399.601C344.198 400.76 342.664 401.68 340.88 402.362C339.107 403.033 337.101 403.368 334.863 403.368C331.749 403.368 328.965 402.663 326.511 401.254C324.067 399.845 322.136 397.805 320.715 395.135C319.306 392.465 318.601 389.232 318.601 385.436C318.601 381.629 319.317 378.391 320.749 375.72C322.181 373.05 324.124 371.016 326.579 369.618C329.033 368.209 331.795 367.504 334.863 367.504C336.886 367.504 338.761 367.788 340.488 368.357C342.226 368.925 343.766 369.754 345.107 370.845C346.448 371.925 347.539 373.249 348.38 374.817C349.232 376.385 349.778 378.18 350.016 380.203Z" fill="black"/>
<path d="M359.984 412.709C359.063 412.709 358.199 412.635 357.393 412.487C356.597 412.351 355.938 412.175 355.415 411.959L357.052 406.538C357.904 406.8 358.671 406.942 359.353 406.965C360.046 406.987 360.643 406.828 361.143 406.487C361.654 406.146 362.069 405.567 362.387 404.749L362.813 403.641L353.421 376.709H361.057L366.478 395.936H366.751L372.222 376.709H379.91L369.734 405.72C369.245 407.129 368.58 408.357 367.739 409.402C366.91 410.459 365.859 411.271 364.586 411.84C363.313 412.419 361.779 412.709 359.984 412.709Z" fill="black"/>
<path d="M394.611 403.402C391.93 403.402 389.623 402.834 387.691 401.697C385.77 400.55 384.293 398.959 383.259 396.925C382.236 394.891 381.725 392.55 381.725 389.902C381.725 387.22 382.242 384.868 383.276 382.845C384.322 380.811 385.805 379.226 387.725 378.09C389.645 376.942 391.93 376.368 394.577 376.368C396.861 376.368 398.861 376.783 400.577 377.612C402.293 378.442 403.651 379.607 404.651 381.107C405.651 382.607 406.202 384.368 406.305 386.391H399.452C399.259 385.084 398.748 384.033 397.918 383.237C397.1 382.43 396.026 382.027 394.697 382.027C393.572 382.027 392.589 382.334 391.748 382.947C390.918 383.55 390.27 384.43 389.805 385.59C389.339 386.749 389.106 388.152 389.106 389.8C389.106 391.47 389.333 392.891 389.787 394.061C390.253 395.232 390.907 396.124 391.748 396.737C392.589 397.351 393.572 397.658 394.697 397.658C395.526 397.658 396.27 397.487 396.93 397.146C397.6 396.805 398.151 396.311 398.583 395.663C399.026 395.004 399.316 394.215 399.452 393.294H406.305C406.191 395.294 405.645 397.055 404.668 398.578C403.702 400.09 402.367 401.271 400.663 402.124C398.958 402.976 396.941 403.402 394.611 403.402Z" fill="black"/>
<path d="M418.215 367.982V402.891H410.954V367.982H418.215Z" fill="black"/>
<path d="M435.964 403.402C433.27 403.402 430.952 402.857 429.009 401.766C427.077 400.663 425.589 399.107 424.543 397.095C423.498 395.072 422.975 392.68 422.975 389.919C422.975 387.226 423.498 384.862 424.543 382.828C425.589 380.794 427.06 379.209 428.958 378.072C430.867 376.936 433.106 376.368 435.674 376.368C437.401 376.368 439.009 376.646 440.498 377.203C441.998 377.749 443.305 378.572 444.418 379.675C445.543 380.777 446.418 382.163 447.043 383.834C447.668 385.493 447.981 387.436 447.981 389.663V391.658H425.873V387.158H441.145C441.145 386.112 440.918 385.186 440.464 384.379C440.009 383.572 439.378 382.942 438.572 382.487C437.776 382.021 436.85 381.788 435.793 381.788C434.691 381.788 433.714 382.044 432.861 382.555C432.02 383.055 431.361 383.732 430.884 384.584C430.407 385.425 430.162 386.362 430.151 387.396V391.675C430.151 392.97 430.39 394.09 430.867 395.033C431.356 395.976 432.043 396.703 432.93 397.215C433.816 397.726 434.867 397.982 436.083 397.982C436.89 397.982 437.628 397.868 438.299 397.641C438.969 397.413 439.543 397.072 440.02 396.618C440.498 396.163 440.861 395.607 441.111 394.947L447.827 395.391C447.486 397.004 446.788 398.413 445.731 399.618C444.685 400.811 443.333 401.743 441.674 402.413C440.026 403.072 438.123 403.402 435.964 403.402Z" fill="black"/>
</g>
</g>
</g>
<defs>
<linearGradient id="paint0_linear_299_936" x1="487.487" y1="240.987" x2="211" y2="553" gradientUnits="userSpaceOnUse">
<stop stop-color="#21CD9C"/>
<stop offset="1" stop-color="#21CD9C" stop-opacity="0"/>
</linearGradient>
</defs>
</svg>
