<svg width="190" height="157" viewBox="0 0 190 157" fill="none" xmlns="http://www.w3.org/2000/svg">
<g id="space ship">
<g id="ship">
<g id="Vector">
<mask id="path-1-inside-1_282_977" fill="white">
<path d="M87.4178 64.2731L67.3102 71.5879L73.2468 73.5792L54.3471 83.3574L61.9154 85.3516L47.3418 99.2913L72.3477 92.8144L71.0883 102.771L84.8445 83.5194L86.1978 89.7422L96.633 76.0566L87.4178 64.2731Z"/>
</mask>
<path d="M87.4178 64.2731L67.3102 71.5879L73.2468 73.5792L54.3471 83.3574L61.9154 85.3516L47.3418 99.2913L72.3477 92.8144L71.0883 102.771L84.8445 83.5194L86.1978 89.7422L96.633 76.0566L87.4178 64.2731Z" stroke="#21CD9C" mask="url(#path-1-inside-1_282_977)"/>
</g>
<g id="Vector_2">
<mask id="path-2-inside-2_282_977" fill="white">
<path d="M68.9866 82.8434L63.713 81.4553L81.983 71.9843L77.4571 70.465L87.2657 66.9011L93.6595 75.0789L88.8884 81.338L87.4686 74.822L76.885 89.6387L77.1241 87.7395L58.957 92.4428L68.9866 82.8434Z"/>
</mask>
<path d="M68.9866 82.8434L63.713 81.4553L81.983 71.9843L77.4571 70.465L87.2657 66.9011L93.6595 75.0789L88.8884 81.338L87.4686 74.822L76.885 89.6387L77.1241 87.7395L58.957 92.4428L68.9866 82.8434Z" stroke="#21CD9C" mask="url(#path-2-inside-2_282_977)"/>
</g>
<g id="Vector_3">
<mask id="path-3-inside-3_282_977" fill="white">
<path d="M101.96 44.2906L86.5182 42.6123C86.424 42.6061 86.3294 42.621 86.2423 42.6557C86.1552 42.6904 86.0783 42.7439 86.0181 42.8117L66.2849 63.8529C66.2088 63.9342 66.1654 64.0371 66.1622 64.144C66.159 64.2509 66.1961 64.3552 66.2672 64.4389L67.7943 66.1954C67.8285 66.2383 67.8723 66.2738 67.9228 66.2996C67.9733 66.3254 68.0293 66.3409 68.087 66.3449C68.1448 66.349 68.2029 66.3416 68.2575 66.3232C68.3121 66.3047 68.362 66.2758 68.4037 66.2382L83.4096 54.0439C83.4782 53.9831 83.564 53.9414 83.6568 53.9237C83.7497 53.906 83.8459 53.9129 83.9341 53.9437L90.9764 56.674C91.0867 56.7111 91.2072 56.7151 91.3207 56.6853C91.4343 56.6556 91.5352 56.5936 91.609 56.5083L102.185 45.158C102.518 44.818 102.388 44.3365 101.96 44.2906Z"/>
</mask>
<path d="M101.96 44.2906L86.5182 42.6123C86.424 42.6061 86.3294 42.621 86.2423 42.6557C86.1552 42.6904 86.0783 42.7439 86.0181 42.8117L66.2849 63.8529C66.2088 63.9342 66.1654 64.0371 66.1622 64.144C66.159 64.2509 66.1961 64.3552 66.2672 64.4389L67.7943 66.1954C67.8285 66.2383 67.8723 66.2738 67.9228 66.2996C67.9733 66.3254 68.0293 66.3409 68.087 66.3449C68.1448 66.349 68.2029 66.3416 68.2575 66.3232C68.3121 66.3047 68.362 66.2758 68.4037 66.2382L83.4096 54.0439C83.4782 53.9831 83.564 53.9414 83.6568 53.9237C83.7497 53.906 83.8459 53.9129 83.9341 53.9437L90.9764 56.674C91.0867 56.7111 91.2072 56.7151 91.3207 56.6853C91.4343 56.6556 91.5352 56.5936 91.609 56.5083L102.185 45.158C102.518 44.818 102.388 44.3365 101.96 44.2906Z" stroke="white" mask="url(#path-3-inside-3_282_977)"/>
</g>
<g id="Vector_4">
<mask id="path-4-inside-4_282_977" fill="white">
<path d="M120.733 69.2782L117.22 83.2393C117.193 83.3225 117.145 83.3984 117.08 83.461C117.015 83.5236 116.935 83.571 116.846 83.5996L88.8042 93.1042C88.6969 93.1372 88.5804 93.136 88.4731 93.1008C88.3658 93.0655 88.2739 92.9983 88.212 92.9098L86.9456 90.957C86.9159 90.9126 86.8964 90.8632 86.8883 90.8118C86.8801 90.7605 86.8835 90.7082 86.8982 90.6584C86.9129 90.6085 86.9386 90.5621 86.9737 90.5221C87.0088 90.482 87.0525 90.4492 87.1022 90.4257L104.564 81.8365C104.648 81.7978 104.719 81.7379 104.769 81.6635C104.818 81.5891 104.843 81.5032 104.842 81.4155C104.712 79.0765 104.582 76.7132 104.451 74.3257C104.451 74.2166 104.488 74.1106 104.557 74.0229C104.626 73.9352 104.723 73.8702 104.836 73.8372L119.92 68.7585C120.384 68.6124 120.83 68.8935 120.733 69.2782Z"/>
</mask>
<path d="M120.733 69.2782L117.22 83.2393C117.193 83.3225 117.145 83.3984 117.08 83.461C117.015 83.5236 116.935 83.571 116.846 83.5996L88.8042 93.1042C88.6969 93.1372 88.5804 93.136 88.4731 93.1008C88.3658 93.0655 88.2739 92.9983 88.212 92.9098L86.9456 90.957C86.9159 90.9126 86.8964 90.8632 86.8883 90.8118C86.8801 90.7605 86.8835 90.7082 86.8982 90.6584C86.9129 90.6085 86.9386 90.5621 86.9737 90.5221C87.0088 90.482 87.0525 90.4492 87.1022 90.4257L104.564 81.8365C104.648 81.7978 104.719 81.7379 104.769 81.6635C104.818 81.5891 104.843 81.5032 104.842 81.4155C104.712 79.0765 104.582 76.7132 104.451 74.3257C104.451 74.2166 104.488 74.1106 104.557 74.0229C104.626 73.9352 104.723 73.8702 104.836 73.8372L119.92 68.7585C120.384 68.6124 120.83 68.8935 120.733 69.2782Z" stroke="white" mask="url(#path-4-inside-4_282_977)"/>
</g>
<g id="Vector_5">
<mask id="path-5-inside-5_282_977" fill="white">
<path d="M98.4072 76.9837C98.1434 77.1065 97.8454 77.1522 97.5528 77.1148C97.2602 77.0774 96.9869 76.9586 96.7694 76.7742C92.4364 73.1459 89.0252 68.6798 86.7791 63.6947C86.6677 63.4454 86.6408 63.1708 86.7018 62.9071C86.7629 62.6433 86.9091 62.4028 87.1212 62.2173L90.754 59.0165C90.9053 58.8829 91.0861 58.7809 91.284 58.7177C91.482 58.6546 91.6924 58.6316 91.9008 58.6504C92.1093 58.6693 92.3109 58.7294 92.4918 58.8269C92.6727 58.9243 92.8286 59.0566 92.9489 59.2148L103.423 72.9395C103.545 73.0972 103.627 73.2773 103.666 73.4673C103.705 73.6574 103.699 73.8529 103.648 74.0405C103.597 74.228 103.503 74.4032 103.371 74.554C103.24 74.7048 103.075 74.8277 102.888 74.9141L98.4072 76.9837Z"/>
</mask>
<path d="M98.4072 76.9837C98.1434 77.1065 97.8454 77.1522 97.5528 77.1148C97.2602 77.0774 96.9869 76.9586 96.7694 76.7742C92.4364 73.1459 89.0252 68.6798 86.7791 63.6947C86.6677 63.4454 86.6408 63.1708 86.7018 62.9071C86.7629 62.6433 86.9091 62.4028 87.1212 62.2173L90.754 59.0165C90.9053 58.8829 91.0861 58.7809 91.284 58.7177C91.482 58.6546 91.6924 58.6316 91.9008 58.6504C92.1093 58.6693 92.3109 58.7294 92.4918 58.8269C92.6727 58.9243 92.8286 59.0566 92.9489 59.2148L103.423 72.9395C103.545 73.0972 103.627 73.2773 103.666 73.4673C103.705 73.6574 103.699 73.8529 103.648 74.0405C103.597 74.228 103.503 74.4032 103.371 74.554C103.24 74.7048 103.075 74.8277 102.888 74.9141L98.4072 76.9837Z" stroke="white" mask="url(#path-5-inside-5_282_977)"/>
</g>
<g id="Vector_6">
<mask id="path-6-inside-6_282_977" fill="white">
<path d="M104.618 74.143C121.953 70.2831 147.044 58.3264 162.277 39.3789C168.069 32.1584 172.372 24.0164 174.971 15.3594C165.158 14.7436 155.306 15.8021 145.908 18.482C121.611 25.4448 101.119 43.1243 91.395 56.8182C94.8437 63.1681 99.3007 69.0074 104.618 74.143Z"/>
</mask>
<path d="M104.618 74.143C121.953 70.2831 147.044 58.3264 162.277 39.3789C168.069 32.1584 172.372 24.0164 174.971 15.3594C165.158 14.7436 155.306 15.8021 145.908 18.482C121.611 25.4448 101.119 43.1243 91.395 56.8182C94.8437 63.1681 99.3007 69.0074 104.618 74.143Z" stroke="white" mask="url(#path-6-inside-6_282_977)"/>
</g>
<path id="Vector_7" d="M127.345 46.406C126.248 44.9697 125.637 43.2657 125.59 41.5093C125.542 39.7528 126.06 38.0228 127.078 36.5378C128.096 35.0528 129.568 33.8794 131.308 33.166C133.048 32.4525 134.979 32.231 136.856 32.5294C138.732 32.8278 140.471 33.6327 141.852 34.8424C143.233 36.0522 144.195 37.6125 144.615 39.3261C145.035 41.0398 144.896 42.8299 144.214 44.4704C143.532 46.1108 142.338 47.5279 140.783 48.5427C139.749 49.2165 138.581 49.6957 137.345 49.953C136.11 50.2103 134.832 50.2406 133.584 50.0422C132.336 49.8438 131.143 49.4206 130.073 48.7967C129.002 48.1728 128.075 47.3604 127.345 46.406Z" fill="black"/>
<path id="Vector_8" d="M127.345 46.406C126.248 44.9697 125.637 43.2657 125.59 41.5093C125.542 39.7528 126.06 38.0228 127.078 36.5378C128.096 35.0528 129.568 33.8794 131.308 33.166C133.048 32.4525 134.979 32.231 136.856 32.5294C138.732 32.8278 140.471 33.6327 141.852 34.8424C143.233 36.0522 144.195 37.6125 144.615 39.3261C145.035 41.0398 144.896 42.8299 144.214 44.4704C143.532 46.1108 142.338 47.5279 140.783 48.5427C139.749 49.2165 138.581 49.6957 137.345 49.953C136.11 50.2103 134.832 50.2406 133.584 50.0422C132.336 49.8438 131.143 49.4206 130.073 48.7967C129.002 48.1728 128.075 47.3604 127.345 46.406Z" fill="#9296A5"/>
<g id="Vector_9">
<mask id="path-9-inside-7_282_977" fill="white">
<path d="M135.213 52.8103C142.115 52.8103 147.71 47.6485 147.71 41.281C147.71 34.9135 142.115 29.7516 135.213 29.7516C128.311 29.7516 122.716 34.9135 122.716 41.281C122.716 47.6485 128.311 52.8103 135.213 52.8103Z"/>
</mask>
<path d="M135.213 52.8103C142.115 52.8103 147.71 47.6485 147.71 41.281C147.71 34.9135 142.115 29.7516 135.213 29.7516C128.311 29.7516 122.716 34.9135 122.716 41.281C122.716 47.6485 128.311 52.8103 135.213 52.8103Z" stroke="white" mask="url(#path-9-inside-7_282_977)"/>
</g>
<g id="Vector_10">
<mask id="path-10-inside-8_282_977" fill="white">
<path d="M117.821 59.0665C121.522 59.0665 124.523 56.298 124.523 52.8829C124.523 49.4677 121.522 46.6992 117.821 46.6992C114.119 46.6992 111.118 49.4677 111.118 52.8829C111.118 56.298 114.119 59.0665 117.821 59.0665Z"/>
</mask>
<path d="M117.821 59.0665C121.522 59.0665 124.523 56.298 124.523 52.8829C124.523 49.4677 121.522 46.6992 117.821 46.6992C114.119 46.6992 111.118 49.4677 111.118 52.8829C111.118 56.298 114.119 59.0665 117.821 59.0665Z" stroke="white" mask="url(#path-10-inside-8_282_977)"/>
</g>
<g id="Vector_11">
<mask id="path-11-inside-9_282_977" fill="white">
<path d="M143.102 19.345C150.25 25.8035 156.066 33.4078 160.264 41.7865C159.14 43.101 157.954 44.3681 156.707 45.5877C151.915 37.5691 144.779 27.992 137.635 21.3168C139.409 20.551 141.235 19.8923 143.102 19.345Z"/>
</mask>
<path d="M143.102 19.345C150.25 25.8035 156.066 33.4078 160.264 41.7865C159.14 43.101 157.954 44.3681 156.707 45.5877C151.915 37.5691 144.779 27.992 137.635 21.3168C139.409 20.551 141.235 19.8923 143.102 19.345Z" stroke="white" mask="url(#path-11-inside-9_282_977)"/>
</g>
<path id="Vector_12" d="M144.325 36.4854C144.837 36.4854 145.252 36.1028 145.252 35.6308C145.252 35.1588 144.837 34.7761 144.325 34.7761C143.814 34.7761 143.399 35.1588 143.399 35.6308C143.399 36.1028 143.814 36.4854 144.325 36.4854Z" fill="white"/>
<path id="Vector_13" d="M126.352 48.1851C126.864 48.1851 127.278 47.8025 127.278 47.3305C127.278 46.8585 126.864 46.4758 126.352 46.4758C125.84 46.4758 125.426 46.8585 125.426 47.3305C125.426 47.8025 125.84 48.1851 126.352 48.1851Z" fill="white"/>
<path id="Vector_14" d="M141.679 50.6262C142.191 50.6262 142.606 50.2435 142.606 49.7715C142.606 49.2995 142.191 48.9169 141.679 48.9169C141.168 48.9169 140.753 49.2995 140.753 49.7715C140.753 50.2435 141.168 50.6262 141.679 50.6262Z" fill="white"/>
<path id="Vector_15" d="M128.998 34.0444C129.509 34.0444 129.924 33.6617 129.924 33.1897C129.924 32.7177 129.509 32.3351 128.998 32.3351C128.486 32.3351 128.071 32.7177 128.071 33.1897C128.071 33.6617 128.486 34.0444 128.998 34.0444Z" fill="white"/>
<path id="Vector_16" d="M133.466 52.3327C133.978 52.3327 134.393 51.9501 134.393 51.4781C134.393 51.0061 133.978 50.6234 133.466 50.6234C132.955 50.6234 132.54 51.0061 132.54 51.4781C132.54 51.9501 132.955 52.3327 133.466 52.3327Z" fill="white"/>
<path id="Vector_17" d="M137.208 32.335C137.719 32.335 138.134 31.9524 138.134 31.4804C138.134 31.0084 137.719 30.6257 137.208 30.6257C136.696 30.6257 136.281 31.0084 136.281 31.4804C136.281 31.9524 136.696 32.335 137.208 32.335Z" fill="white"/>
<path id="Vector_18" d="M146.175 44.0599C146.687 44.0599 147.101 43.6772 147.101 43.2052C147.101 42.7332 146.687 42.3506 146.175 42.3506C145.663 42.3506 145.249 42.7332 145.249 43.2052C145.249 43.6772 145.663 44.0599 146.175 44.0599Z" fill="white"/>
<path id="Vector_19" d="M124.499 40.6079C125.011 40.6079 125.425 40.2252 125.425 39.7532C125.425 39.2812 125.011 38.8986 124.499 38.8986C123.988 38.8986 123.573 39.2812 123.573 39.7532C123.573 40.2252 123.988 40.6079 124.499 40.6079Z" fill="white"/>
<path id="Vector_20" d="M113.601 55.6284C113.013 54.8582 112.685 53.9445 112.66 53.0026C112.635 52.0608 112.913 51.1332 113.459 50.337C114.005 49.5409 114.794 48.9119 115.727 48.5296C116.661 48.1473 117.696 48.0289 118.702 48.1893C119.709 48.3497 120.641 48.7817 121.381 49.4307C122.121 50.0797 122.636 50.9166 122.861 51.8356C123.086 52.7547 123.01 53.7145 122.644 54.5939C122.278 55.4733 121.637 56.2328 120.803 56.7764C120.248 57.1377 119.622 57.3946 118.96 57.5325C118.298 57.6703 117.613 57.6864 116.944 57.5798C116.275 57.4732 115.635 57.246 115.062 56.9111C114.488 56.5763 113.992 56.1404 113.601 55.6284Z" fill="black"/>
<path id="Vector_21" d="M113.601 55.6284C113.013 54.8582 112.685 53.9445 112.66 53.0026C112.635 52.0608 112.913 51.1332 113.459 50.337C114.005 49.5409 114.794 48.9119 115.727 48.5296C116.661 48.1473 117.696 48.0289 118.702 48.1893C119.709 48.3497 120.641 48.7817 121.381 49.4307C122.121 50.0797 122.636 50.9166 122.861 51.8356C123.086 52.7547 123.01 53.7145 122.644 54.5939C122.278 55.4733 121.637 56.2328 120.803 56.7764C120.248 57.1377 119.622 57.3946 118.96 57.5325C118.298 57.6703 117.613 57.6864 116.944 57.5798C116.275 57.4732 115.635 57.246 115.062 56.9111C114.488 56.5763 113.992 56.1404 113.601 55.6284Z" fill="#9296A5"/>
</g>
<g id="power">
<path id="Vector_22" fill-rule="evenodd" clip-rule="evenodd" d="M87.1666 22.3154C87.1789 22.2979 87.1713 22.2841 87.2036 22.2597C87.6093 21.9508 88.0364 21.6695 88.4579 21.3534C90.8674 19.5464 93.4401 17.6359 95.9185 15.8825C96.1709 15.7037 96.842 15.1591 97.0063 15.4338C97.1543 15.6808 96.4111 16.1344 96.035 16.3982C93.5257 18.1579 90.9136 20.1781 88.3224 22.0072C87.857 22.3357 87.3174 22.7521 87.149 22.604C87.039 22.5066 87.1179 22.3844 87.1666 22.3154Z" fill="white"/>
<path id="Vector_23" fill-rule="evenodd" clip-rule="evenodd" d="M79.1666 36.3154C79.1789 36.2979 79.1713 36.2841 79.2036 36.2597C79.6093 35.9508 80.0364 35.6695 80.4579 35.3534C82.8674 33.5464 85.4401 31.6359 87.9185 29.8825C88.1709 29.7037 88.842 29.1591 89.0063 29.4338C89.1543 29.6808 88.4111 30.1344 88.035 30.3982C85.5257 32.1579 82.9136 34.1781 80.3224 36.0072C79.857 36.3357 79.3174 36.7521 79.149 36.604C79.039 36.5066 79.1179 36.3844 79.1666 36.3154Z" fill="white"/>
<path id="Vector_24" fill-rule="evenodd" clip-rule="evenodd" d="M108.167 103.315C108.179 103.298 108.171 103.284 108.204 103.26C108.609 102.951 109.036 102.669 109.458 102.353C111.867 100.546 114.44 98.6359 116.919 96.8825C117.171 96.7037 117.842 96.1591 118.006 96.4338C118.154 96.6808 117.411 97.1344 117.035 97.3982C114.526 99.1579 111.914 101.178 109.322 103.007C108.857 103.336 108.317 103.752 108.149 103.604C108.039 103.507 108.118 103.384 108.167 103.315Z" fill="white"/>
<path id="Vector_25" fill-rule="evenodd" clip-rule="evenodd" d="M142.167 83.3154C142.179 83.2979 142.171 83.2841 142.204 83.2597C142.609 82.9508 143.036 82.6695 143.458 82.3534C145.867 80.5464 148.44 78.6359 150.919 76.8825C151.171 76.7037 151.842 76.1591 152.006 76.4338C152.154 76.6808 151.411 77.1344 151.035 77.3982C148.526 79.1579 145.914 81.1781 143.322 83.0072C142.857 83.3357 142.317 83.7521 142.149 83.604C142.039 83.5066 142.118 83.3844 142.167 83.3154Z" fill="white"/>
<path id="Vector_26" fill-rule="evenodd" clip-rule="evenodd" d="M92.1666 120.315C92.1789 120.298 92.1713 120.284 92.2036 120.26C92.6093 119.951 93.0364 119.669 93.4579 119.353C95.8674 117.546 98.4401 115.636 100.919 113.882C101.171 113.704 101.842 113.159 102.006 113.434C102.154 113.681 101.411 114.134 101.035 114.398C98.5257 116.158 95.9136 118.178 93.3224 120.007C92.857 120.336 92.3174 120.752 92.149 120.604C92.039 120.507 92.1179 120.384 92.1666 120.315Z" fill="white"/>
<path id="Vector_27" fill-rule="evenodd" clip-rule="evenodd" d="M127.167 97.3154C127.179 97.2979 127.171 97.2841 127.204 97.2597C127.609 96.9508 128.036 96.6695 128.458 96.3534C130.867 94.5464 133.44 92.6359 135.919 90.8825C136.171 90.7037 136.842 90.1591 137.006 90.4338C137.154 90.6808 136.411 91.1344 136.035 91.3982C133.526 93.1579 130.914 95.1781 128.322 97.0072C127.857 97.3357 127.317 97.7521 127.149 97.604C127.039 97.5066 127.118 97.3844 127.167 97.3154Z" fill="white"/>
<path id="Vector_28" fill-rule="evenodd" clip-rule="evenodd" d="M42.1666 56.3154C42.1789 56.2979 42.1713 56.2841 42.2036 56.2597C42.6093 55.9508 43.0364 55.6695 43.4579 55.3534C45.8674 53.5464 48.4401 51.6359 50.9185 49.8825C51.1709 49.7037 51.842 49.1591 52.0063 49.4338C52.1543 49.6808 51.4111 50.1344 51.035 50.3982C48.5257 52.1579 45.9136 54.1781 43.3224 56.0072C42.857 56.3357 42.3174 56.7521 42.149 56.604C42.039 56.5066 42.1179 56.3844 42.1666 56.3154Z" fill="white"/>
<path id="Vector_29" fill-rule="evenodd" clip-rule="evenodd" d="M100.276 25.4295C100.308 25.3964 100.303 25.3809 100.375 25.3257C101.286 24.6295 102.219 23.9605 103.163 23.2442C108.557 19.1492 114.306 14.8047 119.791 10.7466C120.35 10.333 121.877 9.13196 122.005 9.43466C122.121 9.70652 120.519 10.8179 119.688 11.4303C114.144 15.5164 108.259 20.0452 102.527 24.2818C101.497 25.0428 100.282 25.977 100.07 25.862C99.9323 25.786 100.147 25.5596 100.276 25.4295Z" fill="white"/>
<path id="Vector_30" fill-rule="evenodd" clip-rule="evenodd" d="M54.3582 44.4295C54.3907 44.3964 54.3854 44.3809 54.4578 44.3257C55.3689 43.6295 56.3018 42.9605 57.2453 42.2442C62.6399 38.1492 68.3883 33.8047 73.8736 29.7466C74.4323 29.333 75.9598 28.132 76.0876 28.4347C76.2032 28.7065 74.6018 29.8179 73.7707 30.4303C68.2265 34.5164 62.3414 39.0452 56.6091 43.2818C55.5794 44.0428 54.3643 44.977 54.1527 44.862C54.0149 44.786 54.2296 44.5596 54.3582 44.4295Z" fill="white"/>
<path id="Vector_31" fill-rule="evenodd" clip-rule="evenodd" d="M50.3582 59.4295C50.3907 59.3964 50.3854 59.3809 50.4578 59.3257C51.3689 58.6295 52.3018 57.9605 53.2453 57.2442C58.6399 53.1492 64.3883 48.8047 69.8736 44.7466C70.4323 44.333 71.9598 43.132 72.0876 43.4347C72.2032 43.7065 70.6018 44.8179 69.7707 45.4303C64.2265 49.5164 58.3414 54.0452 52.6091 58.2818C51.5794 59.0428 50.3643 59.977 50.1527 59.862C50.0149 59.786 50.2296 59.5596 50.3582 59.4295Z" fill="white"/>
<path id="Vector_32" fill-rule="evenodd" clip-rule="evenodd" d="M20.3582 60.4295C20.3907 60.3964 20.3854 60.3809 20.4578 60.3257C21.3689 59.6295 22.3018 58.9605 23.2453 58.2442C28.6399 54.1492 34.3883 49.8047 39.8736 45.7466C40.4323 45.333 41.9598 44.132 42.0876 44.4347C42.2032 44.7065 40.6018 45.8179 39.7707 46.4303C34.2265 50.5164 28.3414 55.0452 22.6091 59.2818C21.5794 60.0428 20.3643 60.977 20.1527 60.862C20.0149 60.786 20.2296 60.5596 20.3582 60.4295Z" fill="white"/>
<path id="Vector_33" fill-rule="evenodd" clip-rule="evenodd" d="M23.3582 81.4295C23.3907 81.3964 23.3854 81.3809 23.4578 81.3257C24.3689 80.6295 25.3018 79.9605 26.2453 79.2442C31.6399 75.1492 37.3883 70.8047 42.8736 66.7466C43.4323 66.333 44.9598 65.132 45.0876 65.4347C45.2032 65.7065 43.6018 66.8179 42.7707 67.4303C37.2265 71.5164 31.3414 76.0452 25.6091 80.2818C24.5794 81.0428 23.3643 81.977 23.1527 81.862C23.0149 81.786 23.2296 81.5596 23.3582 81.4295Z" fill="white"/>
<path id="Vector_34" fill-rule="evenodd" clip-rule="evenodd" d="M59.3582 136.429C59.3907 136.396 59.3854 136.381 59.4578 136.326C60.3689 135.629 61.3018 134.96 62.2453 134.244C67.6399 130.149 73.3883 125.805 78.8736 121.747C79.4323 121.333 80.9598 120.132 81.0876 120.435C81.2032 120.707 79.6018 121.818 78.7707 122.43C73.2265 126.516 67.3414 131.045 61.6091 135.282C60.5794 136.043 59.3643 136.977 59.1527 136.862C59.0149 136.786 59.2296 136.56 59.3582 136.429Z" fill="white"/>
<path id="Vector_35" fill-rule="evenodd" clip-rule="evenodd" d="M151.358 69.4295C151.391 69.3964 151.385 69.3809 151.458 69.3257C152.369 68.6295 153.302 67.9605 154.245 67.2442C159.64 63.1492 165.388 58.8047 170.874 54.7466C171.432 54.333 172.96 53.132 173.088 53.4347C173.203 53.7065 171.602 54.8179 170.771 55.4303C165.227 59.5164 159.341 64.0452 153.609 68.2818C152.579 69.0428 151.364 69.977 151.153 69.862C151.015 69.786 151.23 69.5596 151.358 69.4295Z" fill="white"/>
<path id="Vector_36" fill-rule="evenodd" clip-rule="evenodd" d="M117.358 89.4295C117.391 89.3964 117.385 89.3809 117.458 89.3257C118.369 88.6295 119.302 87.9605 120.245 87.2442C125.64 83.1492 131.388 78.8047 136.874 74.7466C137.432 74.333 138.96 73.132 139.088 73.4347C139.203 73.7065 137.602 74.8179 136.771 75.4303C131.227 79.5164 125.341 84.0452 119.609 88.2818C118.579 89.0428 117.364 89.977 117.153 89.862C117.015 89.786 117.23 89.5596 117.358 89.4295Z" fill="white"/>
<path id="Vector_37" fill-rule="evenodd" clip-rule="evenodd" d="M83.3582 110.429C83.3907 110.396 83.3854 110.381 83.4578 110.326C84.3689 109.629 85.3018 108.96 86.2453 108.244C91.6399 104.149 97.3883 99.8047 102.874 95.7466C103.432 95.333 104.96 94.132 105.088 94.4347C105.203 94.7065 103.602 95.8179 102.771 96.4303C97.2265 100.516 91.3414 105.045 85.6091 109.282C84.5794 110.043 83.3643 110.977 83.1527 110.862C83.0149 110.786 83.2296 110.56 83.3582 110.429Z" fill="white"/>
</g>
</g>
</svg>
