<svg width="190" height="157" viewBox="0 0 190 157" fill="none" xmlns="http://www.w3.org/2000/svg">
<g id="space ship">
<g id="ship">
<g id="Vector">
<mask id="path-1-inside-1_282_977" fill="white">
<path d="M87.4178 64.2731L67.3102 71.5879L73.2468 73.5792L54.3471 83.3574L61.9154 85.3516L47.3418 99.2913L72.3477 92.8144L71.0883 102.771L84.8445 83.5194L86.1978 89.7422L96.633 76.0566L87.4178 64.2731Z"/>
</mask>
<path d="M87.4178 64.2731L67.3102 71.5879L73.2468 73.5792L54.3471 83.3574L61.9154 85.3516L47.3418 99.2913L72.3477 92.8144L71.0883 102.771L84.8445 83.5194L86.1978 89.7422L96.633 76.0566L87.4178 64.2731Z" stroke="#21CD9C" mask="url(#path-1-inside-1_282_977)"/>
</g>
<g id="Vector_2">
<mask id="path-2-inside-2_282_977" fill="white">
<path d="M68.9866 82.8434L63.713 81.4553L81.983 71.9843L77.4571 70.465L87.2657 66.9011L93.6595 75.0789L88.8884 81.338L87.4686 74.822L76.885 89.6387L77.1241 87.7395L58.957 92.4428L68.9866 82.8434Z"/>
</mask>
<path d="M68.9866 82.8434L63.713 81.4553L81.983 71.9843L77.4571 70.465L87.2657 66.9011L93.6595 75.0789L88.8884 81.338L87.4686 74.822L76.885 89.6387L77.1241 87.7395L58.957 92.4428L68.9866 82.8434Z" stroke="#21CD9C" mask="url(#path-2-inside-2_282_977)"/>
</g>
<g id="Vector_3">
<mask id="path-3-inside-3_282_977" fill="white">
<path d="M101.96 44.2906L86.5182 42.6123C86.424 42.6061 86.3294 42.621 86.2423 42.6557C86.1552 42.6904 86.0783 42.7439 86.0181 42.8117L66.2849 63.8529C66.2088 63.9342 66.1654 64.0371 66.1622 64.144C66.159 64.2509 66.1961 64.3552 66.2672 64.4389L67.7943 66.1954C67.8285 66.2383 67.8723 66.2738 67.9228 66.2996C67.9733 66.3254 68.0293 66.3409 68.087 66.3449C68.1448 66.349 68.2029 66.3416 68.2575 66.3232C68.3121 66.3047 68.362 66.2758 68.4037 66.2382L83.4096 54.0439C83.4782 53.9831 83.564 53.9414 83.6568 53.9237C83.7497 53.906 83.8459 53.9129 83.9341 53.9437L90.9764 56.674C91.0867 56.7111 91.2072 56.7151 91.3207 56.6853C91.4343 56.6556 91.5352 56.5936 91.609 56.5083L102.185 45.158C102.518 44.818 102.388 44.3365 101.96 44.2906Z"/>
</mask>
<path d="M101.96 44.2906L86.5182 42.6123C86.424 42.6061 86.3294 42.621 86.2423 42.6557C86.1552 42.6904 86.0783 42.7439 86.0181 42.8117L66.2849 63.8529C66.2088 63.9342 66.1654 64.0371 66.1622 64.144C66.159 64.2509 66.1961 64.3552 66.2672 64.4389L67.7943 66.1954C67.8285 66.2383 67.8723 66.2738 67.9228 66.2996C67.9733 66.3254 68.0293 66.3409 68.087 66.3449C68.1448 66.349 68.2029 66.3416 68.2575 66.3232C68.3121 66.3047 68.362 66.2758 68.4037 66.2382L83.4096 54.0439C83.4782 53.9831 83.564 53.9414 83.6568 53.9237C83.7497 53.906 83.8459 53.9129 83.9341 53.9437L90.9764 56.674C91.0867 56.7111 91.2072 56.7151 91.3207 56.6853C91.4343 56.6556 91.5352 56.5936 91.609 56.5083L102.185 45.158C102.518 44.818 102.388 44.3365 101.96 44.2906Z" stroke="white" mask="url(#path-3-inside-3_282_977)"/>
</g>
<g id="Vector_4">
<mask id="path-4-inside-4_282_977" fill="white">
<path d="M120.733 69.2782L117.22 83.2393C117.193 83.3225 117.145 83.3984 117.08 83.461C117.015 83.5236 116.935 83.571 116.846 83.5996L88.8042 93.1042C88.6969 93.1372 88.5804 93.136 88.4731 93.1008C88.3658 93.0655 88.2739 92.9983 88.212 92.9098L86.9456 90.957C86.9159 90.9126 86.8964 90.8632 86.8883 90.8118C86.8801 90.7605 86.8835 90.7082 86.8982 90.6584C86.9129 90.6085 86.9386 90.5621 86.9737 90.5221C87.0088 90.482 87.0525 90.4492 87.1022 90.4257L104.564 81.8365C104.648 81.7978 104.719 81.7379 104.769 81.6635C104.818 81.5891 104.843 81.5032 104.842 81.4155C104.712 79.0765 104.582 76.7132 104.451 74.3257C104.451 74.2166 104.488 74.1106 104.557 74.0229C104.626 73.9352 104.723 73.8702 104.836 73.8372L119.92 68.7585C120.384 68.6124 120.83 68.8935 120.733 69.2782Z"/>
</mask>
<path d="M120.733 69.2782L117.22 83.2393C117.193 83.3225 117.145 83.3984 117.08 83.461C117.015 83.5236 116.935 83.571 116.846 83.5996L88.8042 93.1042C88.6969 93.1372 88.5804 93.136 88.4731 93.1008C88.3658 93.0655 88.2739 92.9983 88.212 92.9098L86.9456 90.957C86.9159 90.9126 86.8964 90.8632 86.8883 90.8118C86.8801 90.7605 86.8835 90.7082 86.8982 90.6584C86.9129 90.6085 86.9386 90.5621 86.9737 90.5221C87.0088 90.482 87.0525 90.4492 87.1022 90.4257L104.564 81.8365C104.648 81.7978 104.719 81.7379 104.769 81.6635C104.818 81.5891 104.843 81.5032 104.842 81.4155C104.712 79.0765 104.582 76.7132 104.451 74.3257C104.451 74.2166 104.488 74.1106 104.557 74.0229C104.626 73.9352 104.723 73.8702 104.836 73.8372L119.92 68.7585C120.384 68.6124 120.83 68.8935 120.733 69.2782Z" stroke="white" mask="url(#path-4-inside-4_282_977)"/>
</g>
<g id="Vector_5">
<mask id="path-5-inside-5_282_977" fill="white">
<path d="M98.4072 76.9837C98.1434 77.1065 97.8454 77.1522 97.5528 77.1148C97.2602 77.0774 96.9869 76.9586 96.7694 76.7742C92.4364 73.1459 89.0252 68.6798 86.7791 63.6947C86.6677 63.4454 86.6408 63.1708 86.7018 62.9071C86.7629 62.6433 86.9091 62.4028 87.1212 62.2173L90.754 59.0165C90.9053 58.8829 91.0861 58.7809 91.284 58.7177C91.482 58.6546 91.6924 58.6316 91.9008 58.6504C92.1093 58.6693 92.3109 58.7294 92.4918 58.8269C92.6727 58.9243 92.8286 59.0566 92.9489 59.2148L103.423 72.9395C103.545 73.0972 103.627 73.2773 103.666 73.4673C103.705 73.6574 103.699 73.8529 103.648 74.0405C103.597 74.228 103.503 74.4032 103.371 74.554C103.24 74.7048 103.075 74.8277 102.888 74.9141L98.4072 76.9837Z"/>
</mask>
<path d="M98.4072 76.9837C98.1434 77.1065 97.8454 77.1522 97.5528 77.1148C97.2602 77.0774 96.9869 76.9586 96.7694 76.7742C92.4364 73.1459 89.0252 68.6798 86.7791 63.6947C86.6677 63.4454 86.6408 63.1708 86.7018 62.9071C86.7629 62.6433 86.9091 62.4028 87.1212 62.2173L90.754 59.0165C90.9053 58.8829 91.0861 58.7809 91.284 58.7177C91.482 58.6546 91.6924 58.6316 91.9008 58.6504C92.1093 58.6693 92.3109 58.7294 92.4918 58.8269C92.6727 58.9243 92.8286 59.0566 92.9489 59.2148L103.423 72.9395C103.545 73.0972 103.627 73.2773 103.666 73.4673C103.705 73.6574 103.699 73.8529 103.648 74.0405C103.597 74.228 103.503 74.4032 103.371 74.554C103.24 74.7048 103.075 74.8277 102.888 74.9141L98.4072 76.9837Z" stroke="white" mask="url(#path-5-inside-5_282_977)"/>
</g>
<g id="Vector_6">
<mask id="path-6-inside-6_282_977" fill="white">
<path d="M104.618 74.143C121.953 70.2831 147.044 58.3264 162.277 39.3789C168.069 32.1584 172.372 24.0164 174.971 15.3594C165.158 14.7436 155.306 15.8021 145.908 18.482C121.611 25.4448 101.119 43.1243 91.395 56.8182C94.8437 63.1681 99.3007 69.0074 104.618 74.143Z"/>
</mask>
<path d="M104.618 74.143C121.953 70.2831 147.044 58.3264 162.277 39.3789C168.069 32.1584 172.372 24.0164 174.971 15.3594C165.158 14.7436 155.306 15.8021 145.908 18.482C121.611 25.4448 101.119 43.1243 91.395 56.8182C94.8437 63.1681 99.3007 69.0074 104.618 74.143Z" stroke="white" mask="url(#path-6-inside-6_282_977)"/>
</g>
<path id="Vector_7" d="M127.345 46.406C126.248 44.9697 125.637 43.2657 125.59 41.5093C125.542 39.7528 126.06 38.0228 127.078 36.5378C128.096 35.0528 129.568 33.8794 131.308 33.166C133.048 32.4525 134.979 32.231 136.856 32.5294C138.732 32.8278 140.471 33.6327 141.852 34.8424C143.233 36.0522 144.195 37.6125 144.615 39.3261C145.035 41.0398 144.896 42.8299 144.214 44.4704C143.532 46.1108 142.338 47.5279 140.783 48.5427C139.749 49.2165 138.581 49.6957 137.345 49.953C136.11 50.2103 134.832 50.2406 133.584 50.0422C132.336 49.8438 131.143 49.4206 130.073 48.7967C129.002 48.1728 128.075 47.3604 127.345 46.406Z" fill="black"/>
<path id="Vector_8" d="M127.345 46.406C126.248 44.9697 125.637 43.2657 125.59 41.5093C125.542 39.7528 126.06 38.0228 127.078 36.5378C128.096 35.0528 129.568 33.8794 131.308 33.166C133.048 32.4525 134.979 32.231 136.856 32.5294C138.732 32.8278 140.471 33.6327 141.852 34.8424C143.233 36.0522 144.195 37.6125 144.615 39.3261C145.035 41.0398 144.896 42.8299 144.214 44.4704C143.532 46.1108 142.338 47.5279 140.783 48.5427C139.749 49.2165 138.581 49.6957 137.345 49.953C136.11 50.2103 134.832 50.2406 133.584 50.0422C132.336 49.8438 131.143 49.4206 130.073 48.7967C129.002 48.1728 128.075 47.3604 127.345 46.406Z" fill="#9296A5"/>
<g id="Vector_9">
<mask id="path-9-inside-7_282_977" fill="white">
<path d="M135.213 52.8103C142.115 52.8103 147.71 47.6485 147.71 41.281C147.71 34.9135 142.115 29.7516 135.213 29.7516C128.311 29.7516 122.716 34.9135 122.716 41.281C122.716 47.6485 128.311 52.8103 135.213 52.8103Z"/>
</mask>
<path d="M135.213 52.8103C142.115 52.8103 147.71 47.6485 147.71 41.281C147.71 34.9135 142.115 29.7516 135.213 29.7516C128.311 29.7516 122.716 34.9135 122.716 41.281C122.716 47.6485 128.311 52.8103 135.213 52.8103Z" stroke="white" mask="url(#path-9-inside-7_282_977)"/>
</g>
<g id="Vector_10">
<mask id="path-10-inside-8_282_977" fill="white">
<path d="M117.821 59.0665C121.522 59.0665 124.523 56.298 124.523 52.8829C124.523 49.4677 121.522 46.6992 117.821 46.6992C114.119 46.6992 111.118 49.4677 111.118 52.8829C111.118 56.298 114.119 59.0665 117.821 59.0665Z"/>
</mask>
<path d="M117.821 59.0665C121.522 59.0665 124.523 56.298 124.523 52.8829C124.523 49.4677 121.522 46.6992 117.821 46.6992C114.119 46.6992 111.118 49.4677 111.118 52.8829C111.118 56.298 114.119 59.0665 117.821 59.0665Z" stroke="white" mask="url(#path-10-inside-8_282_977)"/>
</g>
<g id="Vector_11">
<mask id="path-11-inside-9_282_977" fill="white">
<path d="M143.102 19.345C150.25 25.8035 156.066 33.4078 160.264 41.7865C159.14 43.101 157.954 44.3681 156.707 45.5877C151.915 37.5691 144.779 27.992 137.635 21.3168C139.409 20.551 141.235 19.8923 143.102 19.345Z"/>
</mask>
<path d="M143.102 19.345C150.25 25.8035 156.066 33.4078 160.264 41.7865C159.14 43.101 157.954 44.3681 156.707 45.5877C151.915 37.5691 144.779 27.992 137.635 21.3168C139.409 20.551 141.235 19.8923 143.102 19.345Z" stroke="white" mask="url(#path-11-inside-9_282_977)"/>
</g>
<path id="Vector_12" d="M144.325 36.4854C144.837 36.4854 145.252 36.1028 145.252 35.6308C145.252 35.1588 144.837 34.7761 144.325 34.7761C143.814 34.7761 143.399 35.1588 143.399 35.6308C143.399 36.1028 143.814 36.4854 144.325 36.4854Z" fill="white"/>
<path id="Vector_13" d="M126.352 48.1851C126.864 48.1851 127.278 47.8025 127.278 47.3305C127.278 46.8585 126.864 46.4758 126.352 46.4758C125.84 46.4758 125.426 46.8585 125.426 47.3305C125.426 47.8025 125.84 48.1851 126.352 48.1851Z" fill="white"/>
<path id="Vector_14" d="M141.679 50.6262C142.191 50.6262 142.606 50.2435 142.606 49.7715C142.606 49.2995 142.191 48.9169 141.679 48.9169C141.168 48.9169 140.753 49.2995 140.753 49.7715C140.753 50.2435 141.168 50.6262 141.679 50.6262Z" fill="white"/>
<path id="Vector_15" d="M128.998 34.0444C129.509 34.0444 129.924 33.6617 129.924 33.1897C129.924 32.7177 129.509 32.3351 128.998 32.3351C128.486 32.3351 128.071 32.7177 128.071 33.1897C128.071 33.6617 128.486 34.0444 128.998 34.0444Z" fill="white"/>
<path id="Vector_16" d="M133.466 52.3327C133.978 52.3327 134.393 51.9501 134.393 51.4781C134.393 51.0061 133.978 50.6234 133.466 50.6234C132.955 50.6234 132.54 51.0061 132.54 51.4781C132.54 51.9501 132.955 52.3327 133.466 52.3327Z" fill="white"/>
<path id="Vector_17" d="M137.208 32.335C137.719 32.335 138.134 31.9524 138.134 31.4804C138.134 31.0084 137.719 30.6257 137.208 30.6257C136.696 30.6257 136.281 31.0084 136.281 31.4804C136.281 31.9524 136.696 32.335 137.208 32.335Z" fill="white"/>
<path id="Vector_18" d="M146.175 44.0599C146.687 44.0599 147.101 43.6772 147.101 43.2052C147.101 42.7332 146.687 42.3506 146.175 42.3506C145.663 42.3506 145.249 42.7332 145.249 43.2052C145.249 43.6772 145.663 44.0599 146.175 44.0599Z" fill="white"/>
<path id="Vector_19" d="M124.499 40.6079C125.011 40.6079 125.425 40.2252 125.425 39.7532C125.425 39.2812 125.011 38.8986 124.499 38.8986C123.988 38.8986 123.573 39.2812 123.573 39.7532C123.573 40.2252 123.988 40.6079 124.499 40.6079Z" fill="white"/>
<path id="Vector_20" d="M113.601 55.6284C113.013 54.8582 112.685 53.9445 112.66 53.0026C112.635 52.0608 112.913 51.1332 113.459 50.337C114.005 49.5409 114.794 48.9119 115.727 48.5296C116.661 48.1473 117.696 48.0289 118.702 48.1893C119.709 48.3497 120.641 48.7817 121.381 49.4307C122.121 50.0797 122.636 50.9166 122.861 51.8356C123.086 52.7547 123.01 53.7145 122.644 54.5939C122.278 55.4733 121.637 56.2328 120.803 56.7764C120.248 57.1377 119.622 57.3946 118.96 57.5325C118.298 57.6703 117.613 57.6864 116.944 57.5798C116.275 57.4732 115.635 57.246 115.062 56.9111C114.488 56.5763 113.992 56.1404 113.601 55.6284Z" fill="black"/>
<path id="Vector_21" d="M113.601 55.6284C113.013 54.8582 112.685 53.9445 112.66 53.0026C112.635 52.0608 112.913 51.1332 113.459 50.337C114.005 49.5409 114.794 48.9119 115.727 48.5296C116.661 48.1473 117.696 48.0289 118.702 48.1893C119.709 48.3497 120.641 48.7817 121.381 49.4307C122.121 50.0797 122.636 50.9166 122.861 51.8356C123.086 52.7547 123.01 53.7145 122.644 54.5939C122.278 55.4733 121.637 56.2328 120.803 56.7764C120.248 57.1377 119.622 57.3946 118.96 57.5325C118.298 57.6703 117.613 57.6864 116.944 57.5798C116.275 57.4732 115.635 57.246 115.062 56.9111C114.488 56.5763 113.992 56.1404 113.601 55.6284Z" fill="#9296A5"/>
</g>
<g id="power">
<g id="Vector_22">
<mask id="path-22-inside-10_282_977" fill="white">
<path d="M132.15 3.84145C122.496 8.32383 123.071 8.05081 122.985 8.10783C117.867 11.3717 113.166 14.3705 108.834 17.1345C108.771 17.1735 108.735 17.2124 108.733 17.2433C108.731 17.2741 108.762 17.2945 108.822 17.3003L109.112 17.3326C109.169 17.3387 109.25 17.3304 109.337 17.3093C109.423 17.2882 109.511 17.2557 109.582 17.2183C127.207 7.92429 126.031 8.54998 126.097 8.50261L132.664 3.91573C132.997 3.67959 132.612 3.62701 132.15 3.84145Z"/>
</mask>
<path d="M132.15 3.84145C122.496 8.32383 123.071 8.05081 122.985 8.10783C117.867 11.3717 113.166 14.3705 108.834 17.1345C108.771 17.1735 108.735 17.2124 108.733 17.2433C108.731 17.2741 108.762 17.2945 108.822 17.3003L109.112 17.3326C109.169 17.3387 109.25 17.3304 109.337 17.3093C109.423 17.2882 109.511 17.2557 109.582 17.2183C127.207 7.92429 126.031 8.54998 126.097 8.50261L132.664 3.91573C132.997 3.67959 132.612 3.62701 132.15 3.84145Z" stroke="white" mask="url(#path-22-inside-10_282_977)"/>
</g>
<g id="Vector_23">
<mask id="path-23-inside-11_282_977" fill="white">
<path d="M115.15 4.84145C105.496 9.32383 106.071 9.05081 105.985 9.10783C100.867 12.3717 96.1656 15.3705 91.8341 18.1345C91.7715 18.1735 91.7353 18.2124 91.733 18.2433C91.7307 18.2741 91.7623 18.2945 91.8215 18.3003L92.1119 18.3326C92.1695 18.3387 92.2496 18.3304 92.3365 18.3093C92.4235 18.2882 92.511 18.2557 92.582 18.2183C110.207 8.92429 109.031 9.54998 109.097 9.50261L115.664 4.91573C115.997 4.67959 115.612 4.62701 115.15 4.84145Z"/>
</mask>
<path d="M115.15 4.84145C105.496 9.32383 106.071 9.05081 105.985 9.10783C100.867 12.3717 96.1656 15.3705 91.8341 18.1345C91.7715 18.1735 91.7353 18.2124 91.733 18.2433C91.7307 18.2741 91.7623 18.2945 91.8215 18.3003L92.1119 18.3326C92.1695 18.3387 92.2496 18.3304 92.3365 18.3093C92.4235 18.2882 92.511 18.2557 92.582 18.2183C110.207 8.92429 109.031 9.54998 109.097 9.50261L115.664 4.91573C115.997 4.67959 115.612 4.62701 115.15 4.84145Z" stroke="white" mask="url(#path-23-inside-11_282_977)"/>
</g>
<g id="Vector_24">
<mask id="path-24-inside-12_282_977" fill="white">
<path d="M95.4121 2.68462C86.2814 8.15573 86.8252 7.82379 86.7458 7.8895C81.9982 11.6727 77.6378 15.1484 73.6203 18.3518C73.5622 18.3972 73.5303 18.4397 73.5312 18.4706C73.5321 18.5015 73.5658 18.5185 73.6252 18.518L73.9174 18.5196C73.9753 18.5197 74.0541 18.5031 74.1383 18.4729C74.2226 18.4428 74.3062 18.4013 74.3729 18.3567C90.9247 7.26383 89.8214 8.00946 89.8816 7.95548L95.9309 2.70455C96.2373 2.43476 95.8488 2.4229 95.4121 2.68462Z"/>
</mask>
<path d="M95.4121 2.68462C86.2814 8.15573 86.8252 7.82379 86.7458 7.8895C81.9982 11.6727 77.6378 15.1484 73.6203 18.3518C73.5622 18.3972 73.5303 18.4397 73.5312 18.4706C73.5321 18.5015 73.5658 18.5185 73.6252 18.518L73.9174 18.5196C73.9753 18.5197 74.0541 18.5031 74.1383 18.4729C74.2226 18.4428 74.3062 18.4013 74.3729 18.3567C90.9247 7.26383 89.8214 8.00946 89.8816 7.95548L95.9309 2.70455C96.2373 2.43476 95.8488 2.4229 95.4121 2.68462Z" stroke="white" mask="url(#path-24-inside-12_282_977)"/>
</g>
<g id="Vector_25">
<mask id="path-25-inside-13_282_977" fill="white">
<path d="M86.4332 23.3502C77.2877 28.7964 77.8324 28.466 77.7529 28.5315C72.995 32.3017 68.6251 35.7655 64.599 38.958C64.5407 39.0033 64.5087 39.0457 64.5095 39.0766C64.5104 39.1075 64.5439 39.1245 64.6034 39.1243L64.8956 39.1266C64.9535 39.1269 65.0323 39.1105 65.1166 39.0806C65.201 39.0506 65.2847 39.0094 65.3515 38.9649C81.9334 27.9172 80.8281 28.6598 80.8884 28.606L86.9521 23.3715C87.2591 23.1026 86.8707 23.0896 86.4332 23.3502Z"/>
</mask>
<path d="M86.4332 23.3502C77.2877 28.7964 77.8324 28.466 77.7529 28.5315C72.995 32.3017 68.6251 35.7655 64.599 38.958C64.5407 39.0033 64.5087 39.0457 64.5095 39.0766C64.5104 39.1075 64.5439 39.1245 64.6034 39.1243L64.8956 39.1266C64.9535 39.1269 65.0323 39.1105 65.1166 39.0806C65.201 39.0506 65.2847 39.0094 65.3515 38.9649C81.9334 27.9172 80.8281 28.6598 80.8884 28.606L86.9521 23.3715C87.2591 23.1026 86.8707 23.0896 86.4332 23.3502Z" stroke="white" mask="url(#path-25-inside-13_282_977)"/>
</g>
<g id="Vector_26">
<mask id="path-26-inside-14_282_977" fill="white">
<path d="M66.5445 44.2708C58.026 50.6534 58.5327 50.2672 58.4605 50.3407C54.1279 54.5928 50.1487 58.4992 46.4826 62.0994C46.4294 62.1506 46.4021 62.1962 46.4062 62.2268C46.4103 62.2574 46.4455 62.2709 46.5046 62.2643L46.7954 62.2358C46.853 62.2299 46.9297 62.2053 47.0104 62.1666C47.0911 62.1279 47.17 62.0781 47.2317 62.0268C62.5527 49.2879 61.5321 50.1432 61.5864 50.0833L67.0626 44.2371C67.3395 43.9372 66.9519 43.9654 66.5445 44.2708Z"/>
</mask>
<path d="M66.5445 44.2708C58.026 50.6534 58.5327 50.2672 58.4605 50.3407C54.1279 54.5928 50.1487 58.4992 46.4826 62.0994C46.4294 62.1506 46.4021 62.1962 46.4062 62.2268C46.4103 62.2574 46.4455 62.2709 46.5046 62.2643L46.7954 62.2358C46.853 62.2299 46.9297 62.2053 47.0104 62.1666C47.0911 62.1279 47.17 62.0781 47.2317 62.0268C62.5527 49.2879 61.5321 50.1432 61.5864 50.0833L67.0626 44.2371C67.3395 43.9372 66.9519 43.9654 66.5445 44.2708Z" stroke="white" mask="url(#path-26-inside-14_282_977)"/>
</g>
<g id="Vector_27">
<mask id="path-27-inside-15_282_977" fill="white">
<path d="M54.4795 64.2003C46.0075 70.6445 46.5114 70.2547 46.4398 70.3287C42.1381 74.6122 38.1873 78.5473 34.5475 82.1741C34.4947 82.2256 34.4677 82.2714 34.472 82.302C34.4763 82.3326 34.5116 82.3457 34.5707 82.3388L34.8613 82.3081C34.9188 82.3019 34.9953 82.2766 35.0757 82.2374C35.1561 82.1981 35.2347 82.1477 35.296 82.096C50.5242 69.2463 49.5098 70.109 49.5637 70.0487L54.9974 64.1629C55.2721 63.861 54.8847 63.8921 54.4795 64.2003Z"/>
</mask>
<path d="M54.4795 64.2003C46.0075 70.6445 46.5114 70.2547 46.4398 70.3287C42.1381 74.6122 38.1873 78.5473 34.5475 82.1741C34.4947 82.2256 34.4677 82.2714 34.472 82.302C34.4763 82.3326 34.5116 82.3457 34.5707 82.3388L34.8613 82.3081C34.9188 82.3019 34.9953 82.2766 35.0757 82.2374C35.1561 82.1981 35.2347 82.1477 35.296 82.096C50.5242 69.2463 49.5098 70.109 49.5637 70.0487L54.9974 64.1629C55.2721 63.861 54.8847 63.8921 54.4795 64.2003Z" stroke="white" mask="url(#path-27-inside-15_282_977)"/>
</g>
<g id="Vector_28">
<mask id="path-28-inside-16_282_977" fill="white">
<path d="M51.874 102.965C43.402 109.409 43.906 109.019 43.8343 109.093C39.5327 113.377 35.5819 117.312 31.942 120.939C31.8892 120.99 31.8622 121.036 31.8665 121.066C31.8709 121.097 31.9061 121.11 31.9652 121.103L32.2558 121.073C32.3133 121.066 32.3898 121.041 32.4702 121.002C32.5506 120.963 32.6292 120.912 32.6905 120.86C47.9188 108.011 46.9044 108.873 46.9582 108.813L52.3919 102.927C52.6666 102.626 52.2792 102.657 51.874 102.965Z"/>
</mask>
<path d="M51.874 102.965C43.402 109.409 43.906 109.019 43.8343 109.093C39.5327 113.377 35.5819 117.312 31.942 120.939C31.8892 120.99 31.8622 121.036 31.8665 121.066C31.8709 121.097 31.9061 121.11 31.9652 121.103L32.2558 121.073C32.3133 121.066 32.3898 121.041 32.4702 121.002C32.5506 120.963 32.6292 120.912 32.6905 120.86C47.9188 108.011 46.9044 108.873 46.9582 108.813L52.3919 102.927C52.6666 102.626 52.2792 102.657 51.874 102.965Z" stroke="white" mask="url(#path-28-inside-16_282_977)"/>
</g>
<g id="Vector_29">
<mask id="path-29-inside-17_282_977" fill="white">
<path d="M45.874 84.9649C37.402 91.4091 37.906 91.0192 37.8343 91.0933C33.5327 95.3767 29.5819 99.3119 25.942 102.939C25.8892 102.99 25.8622 103.036 25.8665 103.066C25.8709 103.097 25.9061 103.11 25.9652 103.103L26.2558 103.073C26.3133 103.066 26.3898 103.041 26.4702 103.002C26.5506 102.963 26.6292 102.912 26.6905 102.86C41.9188 90.0108 40.9044 90.8735 40.9582 90.8132L46.3919 84.9275C46.6666 84.6256 46.2792 84.6566 45.874 84.9649Z"/>
</mask>
<path d="M45.874 84.9649C37.402 91.4091 37.906 91.0192 37.8343 91.0933C33.5327 95.3767 29.5819 99.3119 25.942 102.939C25.8892 102.99 25.8622 103.036 25.8665 103.066C25.8709 103.097 25.9061 103.11 25.9652 103.103L26.2558 103.073C26.3133 103.066 26.3898 103.041 26.4702 103.002C26.5506 102.963 26.6292 102.912 26.6905 102.86C41.9188 90.0108 40.9044 90.8735 40.9582 90.8132L46.3919 84.9275C46.6666 84.6256 46.2792 84.6566 45.874 84.9649Z" stroke="white" mask="url(#path-29-inside-17_282_977)"/>
</g>
<g id="Vector_30">
<mask id="path-30-inside-18_282_977" fill="white">
<path d="M61.874 111.965C53.402 118.409 53.906 118.019 53.8343 118.093C49.5327 122.377 45.5819 126.312 41.942 129.939C41.8892 129.99 41.8622 130.036 41.8665 130.066C41.8709 130.097 41.9061 130.11 41.9652 130.103L42.2558 130.073C42.3133 130.066 42.3898 130.041 42.4702 130.002C42.5506 129.963 42.6292 129.912 42.6905 129.86C57.9188 117.011 56.9044 117.873 56.9582 117.813L62.3919 111.927C62.6666 111.626 62.2792 111.657 61.874 111.965Z"/>
</mask>
<path d="M61.874 111.965C53.402 118.409 53.906 118.019 53.8343 118.093C49.5327 122.377 45.5819 126.312 41.942 129.939C41.8892 129.99 41.8622 130.036 41.8665 130.066C41.8709 130.097 41.9061 130.11 41.9652 130.103L42.2558 130.073C42.3133 130.066 42.3898 130.041 42.4702 130.002C42.5506 129.963 42.6292 129.912 42.6905 129.86C57.9188 117.011 56.9044 117.873 56.9582 117.813L62.3919 111.927C62.6666 111.626 62.2792 111.657 61.874 111.965Z" stroke="white" mask="url(#path-30-inside-18_282_977)"/>
</g>
<g id="Vector_31">
<mask id="path-31-inside-19_282_977" fill="white">
<path d="M81.6589 107.739C73.3414 114.381 73.836 113.98 73.7661 114.055C69.5668 118.439 65.71 122.467 62.1567 126.178C62.1052 126.231 62.0793 126.277 62.0843 126.308C62.0893 126.338 62.1249 126.351 62.1838 126.342L62.4736 126.305C62.531 126.297 62.6068 126.27 62.6863 126.229C62.7658 126.188 62.8431 126.136 62.9032 126.082C77.8239 112.877 76.8301 113.763 76.8825 113.702L82.1758 107.689C82.4433 107.381 82.0567 107.421 81.6589 107.739Z"/>
</mask>
<path d="M81.6589 107.739C73.3414 114.381 73.836 113.98 73.7661 114.055C69.5668 118.439 65.71 122.467 62.1567 126.178C62.1052 126.231 62.0793 126.277 62.0843 126.308C62.0893 126.338 62.1249 126.351 62.1838 126.342L62.4736 126.305C62.531 126.297 62.6068 126.27 62.6863 126.229C62.7658 126.188 62.8431 126.136 62.9032 126.082C77.8239 112.877 76.8301 113.763 76.8825 113.702L82.1758 107.689C82.4433 107.381 82.0567 107.421 81.6589 107.739Z" stroke="white" mask="url(#path-31-inside-19_282_977)"/>
</g>
<g id="Vector_32">
<mask id="path-32-inside-20_282_977" fill="white">
<path d="M107.558 102.978C99.2406 109.62 99.7352 109.218 99.6653 109.294C95.466 113.678 91.6092 117.705 88.0559 121.417C88.0044 121.47 87.9785 121.516 87.9835 121.546C87.9885 121.577 88.0241 121.589 88.083 121.581L88.3728 121.543C88.4302 121.536 88.506 121.509 88.5855 121.468C88.6649 121.426 88.7423 121.374 88.8024 121.321C103.723 108.115 102.729 109.002 102.782 108.94L108.075 102.928C108.342 102.62 107.956 102.66 107.558 102.978Z"/>
</mask>
<path d="M107.558 102.978C99.2406 109.62 99.7352 109.218 99.6653 109.294C95.466 113.678 91.6092 117.705 88.0559 121.417C88.0044 121.47 87.9785 121.516 87.9835 121.546C87.9885 121.577 88.0241 121.589 88.083 121.581L88.3728 121.543C88.4302 121.536 88.506 121.509 88.5855 121.468C88.6649 121.426 88.7423 121.374 88.8024 121.321C103.723 108.115 102.729 109.002 102.782 108.94L108.075 102.928C108.342 102.62 107.956 102.66 107.558 102.978Z" stroke="white" mask="url(#path-32-inside-20_282_977)"/>
</g>
<g id="Vector_33">
<mask id="path-33-inside-21_282_977" fill="white">
<path d="M135.558 88.9775C127.241 95.6199 127.735 95.2183 127.665 95.294C123.466 99.6778 119.609 103.705 116.056 107.417C116.004 107.47 115.978 107.516 115.983 107.546C115.989 107.577 116.024 107.589 116.083 107.581L116.373 107.543C116.43 107.536 116.506 107.509 116.585 107.468C116.665 107.426 116.742 107.374 116.802 107.321C131.723 94.1154 130.729 95.0018 130.782 94.9403L136.075 88.9279C136.342 88.6196 135.956 88.6598 135.558 88.9775Z"/>
</mask>
<path d="M135.558 88.9775C127.241 95.6199 127.735 95.2183 127.665 95.294C123.466 99.6778 119.609 103.705 116.056 107.417C116.004 107.47 115.978 107.516 115.983 107.546C115.989 107.577 116.024 107.589 116.083 107.581L116.373 107.543C116.43 107.536 116.506 107.509 116.585 107.468C116.665 107.426 116.742 107.374 116.802 107.321C131.723 94.1154 130.729 95.0018 130.782 94.9403L136.075 88.9279C136.342 88.6196 135.956 88.6598 135.558 88.9775Z" stroke="white" mask="url(#path-33-inside-21_282_977)"/>
</g>
<g id="Vector_34">
<mask id="path-34-inside-22_282_977" fill="white">
<path d="M159.558 61.9775C151.241 68.6199 151.735 68.2183 151.665 68.294C147.466 72.6778 143.609 76.7051 140.056 80.4167C140.004 80.4695 139.978 80.5159 139.983 80.5464C139.989 80.5769 140.024 80.5892 140.083 80.5808L140.373 80.5434C140.43 80.5357 140.506 80.5087 140.585 80.4676C140.665 80.4264 140.742 80.3742 140.802 80.321C155.723 67.1154 154.729 68.0018 154.782 67.9403L160.075 61.9279C160.342 61.6196 159.956 61.6598 159.558 61.9775Z"/>
</mask>
<path d="M159.558 61.9775C151.241 68.6199 151.735 68.2183 151.665 68.294C147.466 72.6778 143.609 76.7051 140.056 80.4167C140.004 80.4695 139.978 80.5159 139.983 80.5464C139.989 80.5769 140.024 80.5892 140.083 80.5808L140.373 80.5434C140.43 80.5357 140.506 80.5087 140.585 80.4676C140.665 80.4264 140.742 80.3742 140.802 80.321C155.723 67.1154 154.729 68.0018 154.782 67.9403L160.075 61.9279C160.342 61.6196 159.956 61.6598 159.558 61.9775Z" stroke="white" mask="url(#path-34-inside-22_282_977)"/>
</g>
<g id="Vector_35">
<mask id="path-35-inside-23_282_977" fill="white">
<path d="M136.558 73.3409C128.241 79.9833 128.735 79.5817 128.665 79.6574C124.466 84.0412 120.609 88.0685 117.056 91.7801C117.004 91.8329 116.978 91.8793 116.983 91.9098C116.989 91.9403 117.024 91.9526 117.083 91.9442L117.373 91.9068C117.43 91.8991 117.506 91.8721 117.585 91.831C117.665 91.7898 117.742 91.7376 117.802 91.6844C132.723 78.4788 131.729 79.3652 131.782 79.3037L137.075 73.2913C137.342 72.983 136.956 73.0232 136.558 73.3409Z"/>
</mask>
<path d="M136.558 73.3409C128.241 79.9833 128.735 79.5817 128.665 79.6574C124.466 84.0412 120.609 88.0685 117.056 91.7801C117.004 91.8329 116.978 91.8793 116.983 91.9098C116.989 91.9403 117.024 91.9526 117.083 91.9442L117.373 91.9068C117.43 91.8991 117.506 91.8721 117.585 91.831C117.665 91.7898 117.742 91.7376 117.802 91.6844C132.723 78.4788 131.729 79.3652 131.782 79.3037L137.075 73.2913C137.342 72.983 136.956 73.0232 136.558 73.3409Z" stroke="white" mask="url(#path-35-inside-23_282_977)"/>
</g>
<g id="Vector_36">
<mask id="path-36-inside-24_282_977" fill="white">
<path d="M164.708 76.4974C156.283 83.0022 156.784 82.6088 156.713 82.6833C152.442 86.9975 148.52 90.9609 144.906 94.6136C144.853 94.6656 144.827 94.7115 144.831 94.7421C144.836 94.7727 144.871 94.7856 144.93 94.7782L145.221 94.7455C145.278 94.7388 145.354 94.713 145.434 94.6732C145.515 94.6333 145.593 94.5823 145.654 94.5302C160.789 81.5716 159.781 82.4415 159.835 82.3808L165.226 76.4563C165.498 76.1524 165.111 76.1862 164.708 76.4974Z"/>
</mask>
<path d="M164.708 76.4974C156.283 83.0022 156.784 82.6088 156.713 82.6833C152.442 86.9975 148.52 90.9609 144.906 94.6136C144.853 94.6656 144.827 94.7115 144.831 94.7421C144.836 94.7727 144.871 94.7856 144.93 94.7782L145.221 94.7455C145.278 94.7388 145.354 94.713 145.434 94.6732C145.515 94.6333 145.593 94.5823 145.654 94.5302C160.789 81.5716 159.781 82.4415 159.835 82.3808L165.226 76.4563C165.498 76.1524 165.111 76.1862 164.708 76.4974Z" stroke="white" mask="url(#path-36-inside-24_282_977)"/>
</g>
<g id="Vector_37">
<mask id="path-37-inside-25_282_977" fill="white">
<path d="M132.779 108.332C124.354 114.837 124.855 114.443 124.784 114.518C120.513 118.832 116.591 122.796 112.977 126.448C112.924 126.5 112.898 126.546 112.902 126.577C112.907 126.607 112.942 126.62 113.001 126.613L113.292 126.58C113.349 126.573 113.425 126.548 113.505 126.508C113.586 126.468 113.664 126.417 113.725 126.365C128.86 113.406 127.852 114.276 127.906 114.215L133.297 108.291C133.57 107.987 133.182 108.021 132.779 108.332Z"/>
</mask>
<path d="M132.779 108.332C124.354 114.837 124.855 114.443 124.784 114.518C120.513 118.832 116.591 122.796 112.977 126.448C112.924 126.5 112.898 126.546 112.902 126.577C112.907 126.607 112.942 126.62 113.001 126.613L113.292 126.58C113.349 126.573 113.425 126.548 113.505 126.508C113.586 126.468 113.664 126.417 113.725 126.365C128.86 113.406 127.852 114.276 127.906 114.215L133.297 108.291C133.57 107.987 133.182 108.021 132.779 108.332Z" stroke="white" mask="url(#path-37-inside-25_282_977)"/>
</g>
<g id="Vector_38">
<mask id="path-38-inside-26_282_977" fill="white">
<path d="M57.7793 29.3321C49.3538 35.8369 49.8549 35.4435 49.7838 35.518C45.513 39.8322 41.5906 43.7956 37.9768 47.4484C37.9244 47.5003 37.8977 47.5462 37.9023 47.5768C37.9068 47.6074 37.9422 47.6203 38.0012 47.6129L38.2916 47.5802C38.349 47.5735 38.4253 47.5477 38.5055 47.5079C38.5856 47.4681 38.6638 47.4171 38.7247 47.3649C53.8604 34.4063 52.8522 35.2762 52.9056 35.2156L58.297 29.291C58.5695 28.9871 58.1823 29.0209 57.7793 29.3321Z"/>
</mask>
<path d="M57.7793 29.3321C49.3538 35.8369 49.8549 35.4435 49.7838 35.518C45.513 39.8322 41.5906 43.7956 37.9768 47.4484C37.9244 47.5003 37.8977 47.5462 37.9023 47.5768C37.9068 47.6074 37.9422 47.6203 38.0012 47.6129L38.2916 47.5802C38.349 47.5735 38.4253 47.5477 38.5055 47.5079C38.5856 47.4681 38.6638 47.4171 38.7247 47.3649C53.8604 34.4063 52.8522 35.2762 52.9056 35.2156L58.297 29.291C58.5695 28.9871 58.1823 29.0209 57.7793 29.3321Z" stroke="white" mask="url(#path-38-inside-26_282_977)"/>
</g>
<g id="Vector_39">
<mask id="path-39-inside-27_282_977" fill="white">
<path d="M22.5581 87.3408C14.2406 93.9832 14.7352 93.5816 14.6653 93.6573C10.466 98.0411 6.60915 102.068 3.05591 105.78C3.00436 105.833 2.97845 105.879 2.98348 105.91C2.98852 105.94 3.02411 105.952 3.08299 105.944L3.37281 105.907C3.43016 105.899 3.50601 105.872 3.58548 105.831C3.66494 105.79 3.7423 105.737 3.80237 105.684C18.723 92.4787 17.7293 93.3651 17.7817 93.3035L23.075 87.2912C23.3425 86.9829 22.9559 87.0231 22.5581 87.3408Z"/>
</mask>
<path d="M22.5581 87.3408C14.2406 93.9832 14.7352 93.5816 14.6653 93.6573C10.466 98.0411 6.60915 102.068 3.05591 105.78C3.00436 105.833 2.97845 105.879 2.98348 105.91C2.98852 105.94 3.02411 105.952 3.08299 105.944L3.37281 105.907C3.43016 105.899 3.50601 105.872 3.58548 105.831C3.66494 105.79 3.7423 105.737 3.80237 105.684C18.723 92.4787 17.7293 93.3651 17.7817 93.3035L23.075 87.2912C23.3425 86.9829 22.9559 87.0231 22.5581 87.3408Z" stroke="white" mask="url(#path-39-inside-27_282_977)"/>
</g>
<g id="Vector_40">
<mask id="path-40-inside-28_282_977" fill="white">
<path d="M22.5581 112.341C14.2406 118.983 14.7352 118.582 14.6653 118.657C10.466 123.041 6.60915 127.069 3.05591 130.78C3.00436 130.833 2.97845 130.879 2.98348 130.91C2.98852 130.94 3.02411 130.953 3.08299 130.944L3.37281 130.907C3.43016 130.899 3.50601 130.872 3.58548 130.831C3.66494 130.79 3.7423 130.738 3.80237 130.684C18.723 117.479 17.7293 118.365 17.7817 118.304L23.075 112.291C23.3425 111.983 22.9559 112.023 22.5581 112.341Z"/>
</mask>
<path d="M22.5581 112.341C14.2406 118.983 14.7352 118.582 14.6653 118.657C10.466 123.041 6.60915 127.069 3.05591 130.78C3.00436 130.833 2.97845 130.879 2.98348 130.91C2.98852 130.94 3.02411 130.953 3.08299 130.944L3.37281 130.907C3.43016 130.899 3.50601 130.872 3.58548 130.831C3.66494 130.79 3.7423 130.738 3.80237 130.684C18.723 117.479 17.7293 118.365 17.7817 118.304L23.075 112.291C23.3425 111.983 22.9559 112.023 22.5581 112.341Z" stroke="white" mask="url(#path-40-inside-28_282_977)"/>
</g>
<g id="Vector_41">
<mask id="path-41-inside-29_282_977" fill="white">
<path d="M35.5581 127.341C27.2406 133.983 27.7352 133.582 27.6653 133.657C23.466 138.041 19.6092 142.069 16.0559 145.78C16.0044 145.833 15.9785 145.879 15.9835 145.91C15.9885 145.94 16.0241 145.953 16.083 145.944L16.3728 145.907C16.4302 145.899 16.506 145.872 16.5855 145.831C16.6649 145.79 16.7423 145.738 16.8024 145.684C31.723 132.479 30.7293 133.365 30.7817 133.304L36.075 127.291C36.3425 126.983 35.9559 127.023 35.5581 127.341Z"/>
</mask>
<path d="M35.5581 127.341C27.2406 133.983 27.7352 133.582 27.6653 133.657C23.466 138.041 19.6092 142.069 16.0559 145.78C16.0044 145.833 15.9785 145.879 15.9835 145.91C15.9885 145.94 16.0241 145.953 16.083 145.944L16.3728 145.907C16.4302 145.899 16.506 145.872 16.5855 145.831C16.6649 145.79 16.7423 145.738 16.8024 145.684C31.723 132.479 30.7293 133.365 30.7817 133.304L36.075 127.291C36.3425 126.983 35.9559 127.023 35.5581 127.341Z" stroke="white" mask="url(#path-41-inside-29_282_977)"/>
</g>
<g id="Vector_42">
<mask id="path-42-inside-30_282_977" fill="white">
<path d="M38.5581 61.3408C30.2406 67.9832 30.7352 67.5816 30.6653 67.6573C26.466 72.0411 22.6092 76.0684 19.0559 79.78C19.0044 79.8328 18.9785 79.8792 18.9835 79.9097C18.9885 79.9402 19.0241 79.9525 19.083 79.9441L19.3728 79.9066C19.4302 79.899 19.506 79.872 19.5855 79.8308C19.6649 79.7897 19.7423 79.7374 19.8024 79.6843C34.723 66.4787 33.7293 67.3651 33.7817 67.3035L39.075 61.2912C39.3425 60.9829 38.9559 61.0231 38.5581 61.3408Z"/>
</mask>
<path d="M38.5581 61.3408C30.2406 67.9832 30.7352 67.5816 30.6653 67.6573C26.466 72.0411 22.6092 76.0684 19.0559 79.78C19.0044 79.8328 18.9785 79.8792 18.9835 79.9097C18.9885 79.9402 19.0241 79.9525 19.083 79.9441L19.3728 79.9066C19.4302 79.899 19.506 79.872 19.5855 79.8308C19.6649 79.7897 19.7423 79.7374 19.8024 79.6843C34.723 66.4787 33.7293 67.3651 33.7817 67.3035L39.075 61.2912C39.3425 60.9829 38.9559 61.0231 38.5581 61.3408Z" stroke="white" mask="url(#path-42-inside-30_282_977)"/>
</g>
<g id="Vector_43">
<mask id="path-43-inside-31_282_977" fill="white">
<path d="M74.5581 127.341C66.2406 133.983 66.7352 133.582 66.6653 133.657C62.466 138.041 58.6092 142.069 55.0559 145.78C55.0044 145.833 54.9785 145.879 54.9835 145.91C54.9885 145.94 55.0241 145.953 55.083 145.944L55.3728 145.907C55.4302 145.899 55.506 145.872 55.5855 145.831C55.6649 145.79 55.7423 145.738 55.8024 145.684C70.723 132.479 69.7293 133.365 69.7817 133.304L75.075 127.291C75.3425 126.983 74.9559 127.023 74.5581 127.341Z"/>
</mask>
<path d="M74.5581 127.341C66.2406 133.983 66.7352 133.582 66.6653 133.657C62.466 138.041 58.6092 142.069 55.0559 145.78C55.0044 145.833 54.9785 145.879 54.9835 145.91C54.9885 145.94 55.0241 145.953 55.083 145.944L55.3728 145.907C55.4302 145.899 55.506 145.872 55.5855 145.831C55.6649 145.79 55.7423 145.738 55.8024 145.684C70.723 132.479 69.7293 133.365 69.7817 133.304L75.075 127.291C75.3425 126.983 74.9559 127.023 74.5581 127.341Z" stroke="white" mask="url(#path-43-inside-31_282_977)"/>
</g>
<g id="Vector_44">
<mask id="path-44-inside-32_282_977" fill="white">
<path d="M100.558 122.341C92.2406 128.983 92.7352 128.582 92.6653 128.657C88.466 133.041 84.6092 137.069 81.0559 140.78C81.0044 140.833 80.9785 140.879 80.9835 140.91C80.9885 140.94 81.0241 140.953 81.083 140.944L81.3728 140.907C81.4302 140.899 81.506 140.872 81.5855 140.831C81.6649 140.79 81.7423 140.738 81.8024 140.684C96.723 127.479 95.7293 128.365 95.7817 128.304L101.075 122.291C101.342 121.983 100.956 122.023 100.558 122.341Z"/>
</mask>
<path d="M100.558 122.341C92.2406 128.983 92.7352 128.582 92.6653 128.657C88.466 133.041 84.6092 137.069 81.0559 140.78C81.0044 140.833 80.9785 140.879 80.9835 140.91C80.9885 140.94 81.0241 140.953 81.083 140.944L81.3728 140.907C81.4302 140.899 81.506 140.872 81.5855 140.831C81.6649 140.79 81.7423 140.738 81.8024 140.684C96.723 127.479 95.7293 128.365 95.7817 128.304L101.075 122.291C101.342 121.983 100.956 122.023 100.558 122.341Z" stroke="white" mask="url(#path-44-inside-32_282_977)"/>
</g>
<g id="Vector_45">
<mask id="path-45-inside-33_282_977" fill="white">
<path d="M48.5581 137.341C40.2406 143.983 40.7352 143.582 40.6653 143.657C36.466 148.041 32.6092 152.069 29.0559 155.78C29.0044 155.833 28.9785 155.879 28.9835 155.91C28.9885 155.94 29.0241 155.953 29.083 155.944L29.3728 155.907C29.4302 155.899 29.506 155.872 29.5855 155.831C29.6649 155.79 29.7423 155.738 29.8024 155.684C44.723 142.479 43.7293 143.365 43.7817 143.304L49.075 137.291C49.3425 136.983 48.9559 137.023 48.5581 137.341Z"/>
</mask>
<path d="M48.5581 137.341C40.2406 143.983 40.7352 143.582 40.6653 143.657C36.466 148.041 32.6092 152.069 29.0559 155.78C29.0044 155.833 28.9785 155.879 28.9835 155.91C28.9885 155.94 29.0241 155.953 29.083 155.944L29.3728 155.907C29.4302 155.899 29.506 155.872 29.5855 155.831C29.6649 155.79 29.7423 155.738 29.8024 155.684C44.723 142.479 43.7293 143.365 43.7817 143.304L49.075 137.291C49.3425 136.983 48.9559 137.023 48.5581 137.341Z" stroke="white" mask="url(#path-45-inside-33_282_977)"/>
</g>
<g id="Vector_46">
<mask id="path-46-inside-34_282_977" fill="white">
<path d="M177.558 56.3409C169.241 62.9833 169.735 62.5817 169.665 62.6574C165.466 67.0412 161.609 71.0685 158.056 74.7801C158.004 74.8329 157.978 74.8793 157.983 74.9098C157.989 74.9403 158.024 74.9526 158.083 74.9442L158.373 74.9068C158.43 74.8991 158.506 74.8721 158.585 74.831C158.665 74.7898 158.742 74.7376 158.802 74.6844C173.723 61.4788 172.729 62.3652 172.782 62.3037L178.075 56.2913C178.342 55.983 177.956 56.0232 177.558 56.3409Z"/>
</mask>
<path d="M177.558 56.3409C169.241 62.9833 169.735 62.5817 169.665 62.6574C165.466 67.0412 161.609 71.0685 158.056 74.7801C158.004 74.8329 157.978 74.8793 157.983 74.9098C157.989 74.9403 158.024 74.9526 158.083 74.9442L158.373 74.9068C158.43 74.8991 158.506 74.8721 158.585 74.831C158.665 74.7898 158.742 74.7376 158.802 74.6844C173.723 61.4788 172.729 62.3652 172.782 62.3037L178.075 56.2913C178.342 55.983 177.956 56.0232 177.558 56.3409Z" stroke="white" mask="url(#path-46-inside-34_282_977)"/>
</g>
</g>
</g>
</svg>
