<svg width="125" height="105" viewBox="0 0 125 105" fill="none" xmlns="http://www.w3.org/2000/svg">
<g id="support">
<g id="hand">
<path id="Vector 131" d="M124 88.3043V67.2491V66.9939H120.709L119.064 66.4834L117.144 65.8454L115.087 65.0798L112.756 64.0589L110.973 62.9104L108.916 61.6344L106.311 59.7202L103.294 57.6785L100.415 55.892L98.0836 54.6159L95.3411 53.5951L92.5987 52.7018L89.8562 52.1914H57.3579L55.7124 52.8294L54.6154 53.9779L53.9298 55.254L53.6555 56.6577L54.0669 58.3166L54.8896 59.5926L55.9866 60.4859L57.3579 60.9963H76.0067L77.9264 61.6344L79.4348 62.9104L80.6689 64.3141L81.3545 65.8454L81.6288 67.7595L81.3545 69.8012L80.3947 71.3325L79.4348 72.481L77.9264 73.6294L47.8963 81.0307H45.4281L11.1472 60.3583H7.44482L5.66221 60.7411L4.15385 61.5067L2.78261 62.6552L1.68562 64.0589L1 66.2282V68.3975L1.13712 69.8012L1.95987 71.3325L3.05686 72.7362L49.8161 104H54.4783L120.572 88.3043H124Z" stroke="url(#paint0_linear_288_776)"/>
</g>
<g id="heart">
<g id="Vector">
<mask id="path-2-inside-1_288_776" fill="white">
<path d="M70.7675 3.1333C58.953 -6.31051 49.0023 8.43797 47.6767 10.1859C46.16 8.43654 35.3757 -5.28969 24.3581 5.0245C8.06397 20.2773 48.2082 50.232 49.2766 51.025C49.2772 51.0315 49.2779 51.0429 49.2779 51.0429C49.2779 51.0429 49.282 51.0394 49.2888 51.0336C49.2956 51.0386 49.3004 51.0422 49.3004 51.0422C49.3004 51.0422 49.2997 51.0308 49.299 51.0236C50.3041 50.1496 88.1333 17.0164 70.7675 3.1333Z"/>
</mask>
<path d="M70.7675 3.1333C58.953 -6.31051 49.0023 8.43797 47.6767 10.1859C46.16 8.43654 35.3757 -5.28969 24.3581 5.0245C8.06397 20.2773 48.2082 50.232 49.2766 51.025C49.2772 51.0315 49.2779 51.0429 49.2779 51.0429C49.2779 51.0429 49.282 51.0394 49.2888 51.0336C49.2956 51.0386 49.3004 51.0422 49.3004 51.0422C49.3004 51.0422 49.2997 51.0308 49.299 51.0236C50.3041 50.1496 88.1333 17.0164 70.7675 3.1333Z" stroke="#21CD9C" stroke-width="2" mask="url(#path-2-inside-1_288_776)"/>
</g>
<g id="Vector_2">
<mask id="path-3-inside-2_288_776" fill="white">
<path d="M67.3374 8.26685C57.2951 1.04233 48.837 12.3249 47.7102 13.6621C46.421 12.3238 37.2544 1.82326 27.8894 9.71362C14.0394 21.382 48.162 44.2974 49.0701 44.904C49.0707 44.909 49.0712 44.9177 49.0712 44.9177C49.0712 44.9177 49.0747 44.915 49.0805 44.9106C49.0863 44.9144 49.0903 44.9172 49.0903 44.9172C49.0903 44.9172 49.0898 44.9084 49.0892 44.9029C49.9435 44.2343 82.0983 18.8874 67.3374 8.26685Z"/>
</mask>
<path d="M67.3374 8.26685C57.2951 1.04233 48.837 12.3249 47.7102 13.6621C46.421 12.3238 37.2544 1.82326 27.8894 9.71362C14.0394 21.382 48.162 44.2974 49.0701 44.904C49.0707 44.909 49.0712 44.9177 49.0712 44.9177C49.0712 44.9177 49.0747 44.915 49.0805 44.9106C49.0863 44.9144 49.0903 44.9172 49.0903 44.9172C49.0903 44.9172 49.0898 44.9084 49.0892 44.9029C49.9435 44.2343 82.0983 18.8874 67.3374 8.26685Z" stroke="white" stroke-width="2" mask="url(#path-3-inside-2_288_776)"/>
</g>
</g>
</g>
<defs>
<linearGradient id="paint0_linear_288_776" x1="62.5" y1="52.1914" x2="61" y2="125" gradientUnits="userSpaceOnUse">
<stop stop-color="#21CD9C"/>
<stop offset="1" stop-color="white" stop-opacity="0"/>
</linearGradient>
</defs>
</svg>
